<svg viewBox="0 0 1440 726" fill="none" xmlns="http://www.w3.org/2000/svg">
<path d="M473.889 674C385.889 647.5 312.389 550.5 226.889 587C141.389 623.5 -2.11111 579 -2.11111 579C-26.6111 587 -2.11111 0 -2.11111 0H1440V523.5C1440 523.5 1416.39 598 1352.39 621.5C1288.39 645 1256.39 586.5 1190.89 604C1125.39 621.5 1087.39 708 988.889 708C890.389 708 776.889 630.5 707.889 621.5C638.889 612.5 551.389 692.5 473.889 674Z" fill="#93FF3C" fill-opacity="0.15"/>
<circle cx="226.5" cy="644.5" r="27.5" fill="#DDF9C7" fill-opacity="0.61"/>
<circle cx="1200.5" cy="666.5" r="27.5" fill="#DDF9C7" fill-opacity="0.61"/>
<circle cx="302" cy="642" r="16" fill="#DDF9C7" fill-opacity="0.61"/>
<circle cx="1276" cy="664" r="16" fill="#DDF9C7" fill-opacity="0.61"/>
<circle cx="1145" cy="710" r="16" fill="#DDF9C7" fill-opacity="0.61"/>
<circle cx="712" cy="668" r="16" fill="#DDF9C7" fill-opacity="0.61"/>
<circle cx="661.5" cy="657.5" r="9.5" fill="#DDF9C7" fill-opacity="0.61"/>
</svg>
