<svg  viewBox="0 0 75 75" fill="none" xmlns="http://www.w3.org/2000/svg">
<path d="M37.5 75C58.2107 75 75 58.2107 75 37.5C75 16.7893 58.2107 0 37.5 0C16.7893 0 0 16.7893 0 37.5C0 58.2107 16.7893 75 37.5 75Z" fill="#F0B90B"/>
<path d="M23.5148 37.5L17.7773 43.2773L12 37.5L17.7773 31.7227L23.5148 37.5ZM37.5 23.5148L47.3812 33.3961L53.1586 27.6187L43.2773 17.7773L37.5 12L31.7226 17.7773L21.8812 27.6187L27.6586 33.3961L37.5 23.5148ZM57.2226 31.7227L51.4851 37.5L57.2625 43.2773L63 37.5L57.2226 31.7227ZM37.5 51.4851L27.6187 41.6039L21.8812 47.3812L31.7625 57.2625L37.5 63L43.2773 57.2226L53.1586 47.3414L47.3812 41.6039L37.5 51.4851ZM37.5 43.2773L43.2773 37.5L37.5 31.7227L31.7226 37.5L37.5 43.2773Z" fill="white"/>
</svg>
