<svg  viewBox="0 0 343 100" fill="none" xmlns="http://www.w3.org/2000/svg">
<path d="M299.5 87C320.211 87 337 70.2107 337 49.5C337 28.7893 320.211 12 299.5 12C278.789 12 262 28.7893 262 49.5C262 70.2107 278.789 87 299.5 87Z" fill="#F0B90B"/>
<path fill-rule="evenodd" clip-rule="evenodd" d="M283.54 39.975L299.515 24L305.885 30.3697L289.91 46.3448L283.54 39.975ZM283.552 59.0648L309.082 33.5351L315.451 39.9049L289.922 65.4345L283.552 59.0648ZM318.63 43.1014L293.1 68.631L299.47 75L325 49.4707L318.63 43.1014ZM274 49.5135L280.37 43.1438L286.74 49.5135L280.37 55.8833L274 49.5135Z" fill="white"/>
<path d="M155.306 41.2818C154.908 41.6661 154.897 42.2992 155.281 42.6958L161.532 49.1595C161.915 49.5561 162.548 49.5661 162.946 49.1819C163.343 48.7976 163.354 48.1645 162.971 47.7679L157.414 42.0224L163.17 36.4559C163.567 36.0716 163.578 35.4386 163.195 35.0419C162.811 34.6453 162.178 34.6353 161.781 35.0195L155.306 41.2818ZM187.692 41.5014L156.018 41.0002L155.982 42.9998L187.657 43.5011L187.692 41.5014Z" fill="#292929"/>
<path d="M188.562 57.3779C188.952 56.9874 188.952 56.3542 188.562 55.9637L182.198 49.5997C181.807 49.2092 181.174 49.2092 180.784 49.5997C180.393 49.9903 180.393 50.6234 180.784 51.014L186.44 56.6708L180.784 62.3277C180.393 62.7182 180.393 63.3514 180.784 63.7419C181.174 64.1324 181.807 64.1324 182.198 63.7419L188.562 57.3779ZM156.127 57.6708H187.855V55.6708H156.127V57.6708Z" fill="#292929"/>
<path d="M27.4863 43.6496L43.4996 27.6367L59.5211 43.6579L68.8389 34.3401L43.4996 9L18.1689 34.3319L27.4863 43.6496" fill="#F3BA2F"/>
<path d="M5 43.6393H18.1776V56.8161H5V43.6393Z" fill="#F3BA2F"/>
<path d="M27.4861 56.8082L43.4995 72.8211L59.5206 56.8004L68.8433 66.1132L68.8388 66.1181L43.4995 91.4579L18.168 66.1268L18.1548 66.1136L27.4861 56.8082" fill="#F3BA2F"/>
<path d="M68.8225 43.6434H82.0001V56.8202H68.8225V43.6434Z" fill="#F3BA2F"/>
<path d="M52.9505 50.224H52.9546L43.4996 40.769L36.5121 47.7564H36.5117L35.709 48.5596L34.0532 50.2157L34.04 50.2285L34.0532 50.2421L43.4996 59.6889L52.9546 50.2339L52.9592 50.2285L52.9505 50.224" fill="#F3BA2F"/>
</svg>
