<svg  viewBox="0 0 330 100" fill="none" xmlns="http://www.w3.org/2000/svg">
<path d="M28.0261 42.3482L42.9996 27.172L57.9808 42.356L66.6935 33.5252L42.9996 9.50916L19.3138 33.5174L28.0261 42.3482" fill="#F3BA2F"/>
<path d="M7 42.3385H19.3219V54.8267H7V42.3385Z" fill="#F3BA2F"/>
<path d="M28.0262 54.8193L42.9997 69.9954L57.9805 54.8118L66.6978 63.638L66.6936 63.6427L42.9997 87.6583L19.3131 63.6509L19.3008 63.6384L28.0262 54.8193" fill="#F3BA2F"/>
<path d="M66.6781 42.3423H79V54.8305H66.6781V42.3423Z" fill="#F3BA2F"/>
<path d="M51.8368 48.5791H51.8407L42.9996 39.6181L36.4659 46.2405H36.4655L35.7149 47.0016L34.1666 48.5713L34.1543 48.5834L34.1666 48.5963L42.9996 57.5494L51.8407 48.5885L51.8449 48.5834L51.8368 48.5791" fill="#F3BA2F"/>
<path d="M180.823 57.3587C181.213 56.9681 181.213 56.335 180.823 55.9444L174.459 49.5805C174.068 49.19 173.435 49.19 173.045 49.5805C172.654 49.971 172.654 50.6042 173.045 50.9947L178.702 56.6516L173.045 62.3084C172.654 62.6989 172.654 63.3321 173.045 63.7226C173.435 64.1131 174.068 64.1131 174.459 63.7226L180.823 57.3587ZM148 57.6516H180.116V55.6516H148V57.6516Z" fill="#292929"/>
<path d="M147.306 41.282C146.908 41.6663 146.897 42.2994 147.28 42.6959L153.53 49.1582C153.913 49.5548 154.546 49.5647 154.944 49.1803C155.341 48.796 155.353 48.1629 154.969 47.7663L149.414 42.0221L155.171 36.4544C155.569 36.0701 155.58 35.437 155.196 35.0404C154.813 34.6439 154.18 34.634 153.782 35.0184L147.306 41.282ZM180.08 41.5008L148.018 41.0001L147.982 42.9998L180.044 43.5005L180.08 41.5008Z" fill="#292929"/>
<g clip-path="url(#clip0)">
<path d="M325.925 46.7075C324.744 66.5363 309.148 84.2075 288.452 84.2075C269.357 82.5636 252.314 66.3823 250.98 46.7075C250.98 25.9968 268.227 11.4164 288.452 9.20752C309.148 9.20752 327.105 26.8787 325.925 46.7075Z" fill="#79FF39"/>
<path d="M319.252 46.7075C319.252 63.7301 305.7 75.8856 288.452 77.5295C272.026 76.3479 257.653 63.7301 257.653 46.7075C257.653 29.685 271.307 18.8137 288.452 15.8856C305.135 15.8856 320.278 30.8856 319.252 46.7075Z" fill="white"/>
<path d="M284.441 21.0167C278.016 20.5485 272.523 24.8293 272.129 27.3925C271.735 29.9556 289.068 42.8035 289.068 42.8035C289.068 42.8035 290.865 21.485 284.441 21.0167Z" fill="#A9F76B"/>
<path d="M267.304 31.2965C262.684 30.9369 259.527 43.35 261.311 46.544C263.095 49.7384 286.181 44.0813 286.181 44.0813C286.181 44.0813 271.924 31.6561 267.304 31.2965Z" fill="#A9F76B"/>
<path d="M263.71 51.9474C262.223 55.4406 269.305 66.0707 272.745 66.2794C276.184 66.4882 287.36 46.7075 287.36 46.7075C287.36 46.7075 265.197 48.4543 263.71 51.9474Z" fill="#A9F76B"/>
<path d="M278.494 69.3104C281.522 71.9816 294.817 72.5981 296.665 69.3104C298.513 66.0226 290.176 48.5568 290.176 48.5568C290.176 48.5568 275.465 66.6392 278.494 69.3104Z" fill="#A9F76B"/>
<path d="M305.392 26.8788C304.466 24.6298 297.421 20.0233 294.099 20.9199C290.777 21.8165 291.208 43.3674 291.208 43.3674C291.208 43.3674 306.318 29.1278 305.392 26.8788Z" fill="#A9F76B"/>
<path d="M315.196 46.0855C316.829 43.3062 313.808 33.1319 310.935 30.7246C308.061 28.3172 293.483 46.0855 293.483 46.0855C293.483 46.0855 313.564 48.8651 315.196 46.0855Z" fill="#A9F76B"/>
<path d="M303.8 66.5874C305.928 66.8014 314.303 56.2561 313.656 53.745C313.009 51.2339 292.661 47.3923 292.661 47.3923C292.661 47.3923 301.673 66.3738 303.8 66.5874Z" fill="#A9F76B"/>
<path d="M302.825 16.8103C303.335 16.8103 303.749 16.3963 303.749 15.8856C303.749 15.3749 303.335 14.9609 302.825 14.9609C302.314 14.9609 301.901 15.3749 301.901 15.8856C301.901 16.3963 302.314 16.8103 302.825 16.8103Z" fill="#03EA36"/>
<path d="M283.524 81.639C284.034 81.639 284.448 81.2251 284.448 80.7144C284.448 80.2037 284.034 79.7897 283.524 79.7897C283.014 79.7897 282.6 80.2037 282.6 80.7144C282.6 81.2251 283.014 81.639 283.524 81.639Z" fill="#03EA36"/>
<path d="M323.963 45.7588C323.902 45.2517 323.443 44.8894 322.936 44.9496C322.429 45.0098 322.067 45.4697 322.128 45.9768C322.188 46.4839 322.647 46.8462 323.154 46.786C323.661 46.7258 324.023 46.2659 323.963 45.7588Z" fill="#03EA36"/>
<path d="M306.829 17.7349C307.34 17.7349 307.753 17.3209 307.753 16.8102C307.753 16.2995 307.34 15.8856 306.829 15.8856C306.319 15.8856 305.905 16.2995 305.905 16.8102C305.905 17.3209 306.319 17.7349 306.829 17.7349Z" fill="#03EA36"/>
<path d="M287.528 82.5635C288.038 82.5635 288.452 82.1495 288.452 81.6388C288.452 81.1282 288.038 80.7142 287.528 80.7142C287.018 80.7142 286.604 81.1282 286.604 81.6388C286.604 82.1495 287.018 82.5635 287.528 82.5635Z" fill="#03EA36"/>
<path d="M324.408 41.6712C324.348 41.1641 323.888 40.8018 323.382 40.862C322.875 40.9222 322.513 41.3821 322.573 41.8892C322.633 42.3963 323.093 42.7586 323.599 42.6984C324.106 42.6382 324.468 42.1783 324.408 41.6712Z" fill="#03EA36"/>
<path d="M268.125 19.7898C268.352 19.7898 268.536 19.6058 268.536 19.3789C268.536 19.1519 268.352 18.9679 268.125 18.9679C267.898 18.9679 267.714 19.1519 267.714 19.3789C267.714 19.6058 267.898 19.7898 268.125 19.7898Z" fill="#03EA36"/>
<path d="M269.408 20.098C269.606 20.098 269.767 19.937 269.767 19.7384C269.767 19.5398 269.606 19.3788 269.408 19.3788C269.209 19.3788 269.048 19.5398 269.048 19.7384C269.048 19.937 269.209 20.098 269.408 20.098Z" fill="#03EA36"/>
<path d="M264.743 22.4717C263.627 21.757 266.151 19.7767 266.661 19.7507C267.17 19.7248 267.604 20.1172 267.63 20.6272C267.656 21.1372 266.739 21.838 266.38 22.1527C265.775 22.6823 265.718 23.4507 264.743 22.4717Z" fill="#03EA36"/>
<path d="M304.827 15.4746C305.083 15.4746 305.289 15.2676 305.289 15.0123C305.289 14.757 305.083 14.55 304.827 14.55C304.572 14.55 304.365 14.757 304.365 15.0123C304.365 15.2676 304.572 15.4746 304.827 15.4746Z" fill="#03EA36"/>
<path d="M285.732 81.6389C285.987 81.6389 286.194 81.4319 286.194 81.1766C286.194 80.9213 285.987 80.7143 285.732 80.7143C285.477 80.7143 285.27 80.9213 285.27 81.1766C285.27 81.4319 285.477 81.6389 285.732 81.6389Z" fill="#03EA36"/>
<path d="M323.702 43.5654C323.672 43.3119 323.442 43.1307 323.189 43.1608C322.936 43.1909 322.755 43.4209 322.785 43.6744C322.815 43.928 323.045 44.1091 323.298 44.079C323.551 44.0489 323.732 43.819 323.702 43.5654Z" fill="#03EA36"/>
<path d="M288.606 80.7145C288.861 80.7145 289.068 80.5075 289.068 80.2521C289.068 79.9968 288.861 79.7898 288.606 79.7898C288.351 79.7898 288.144 79.9968 288.144 80.2521C288.144 80.5075 288.351 80.7145 288.606 80.7145Z" fill="#03EA36"/>
<path d="M322.446 40.8177C322.416 40.5641 322.186 40.383 321.933 40.4131C321.679 40.4432 321.498 40.6731 321.528 40.9267C321.558 41.1803 321.788 41.3614 322.042 41.3313C322.295 41.3012 322.476 41.0713 322.446 40.8177Z" fill="#03EA36"/>
<path d="M289.941 81.1253C290.196 81.1253 290.403 80.9183 290.403 80.6629C290.403 80.4076 290.196 80.2006 289.941 80.2006C289.686 80.2006 289.479 80.4076 289.479 80.6629C289.479 80.9183 289.686 81.1253 289.941 81.1253Z" fill="#03EA36"/>
<path d="M322.697 39.4431C322.666 39.1896 322.437 39.0084 322.183 39.0385C321.93 39.0686 321.749 39.2986 321.779 39.5521C321.809 39.8057 322.039 39.9868 322.292 39.9567C322.546 39.9266 322.727 39.6967 322.697 39.4431Z" fill="#03EA36"/>
<path d="M306.265 18.8649C306.463 18.8649 306.624 18.7039 306.624 18.5053C306.624 18.3067 306.463 18.1458 306.265 18.1458C306.067 18.1458 305.906 18.3067 305.906 18.5053C305.906 18.7039 306.067 18.8649 306.265 18.8649Z" fill="#03EA36"/>
<path d="M304.827 17.7348C305.083 17.7348 305.289 17.5278 305.289 17.2725C305.289 17.0172 305.083 16.8102 304.827 16.8102C304.572 16.8102 304.365 17.0172 304.365 17.2725C304.365 17.5278 304.572 17.7348 304.827 17.7348Z" fill="#03EA36"/>
<path d="M301.953 14.1389C302.208 14.1389 302.415 13.932 302.415 13.6766C302.415 13.4213 302.208 13.2143 301.953 13.2143C301.697 13.2143 301.491 13.4213 301.491 13.6766C301.491 13.932 301.697 14.1389 301.953 14.1389Z" fill="#03EA36"/>
</g>
<defs>
<clipPath id="clip0">
<rect width="75" height="75" fill="white" transform="translate(250.98 9.20752)"/>
</clipPath>
</defs>
</svg>
