<svg viewBox="0 0 75 75" fill="none" xmlns="http://www.w3.org/2000/svg">
<path d="M24.9412 32.1869L38.4299 18.6985L51.9255 32.1938L59.7743 24.3451L38.4299 3L17.0928 24.3381L24.9412 32.1869" fill="#F3BA2F"/>
<path d="M6 32.1782H17.1001V43.2776H6V32.1782Z" fill="#F3BA2F"/>
<path d="M24.941 43.2709L38.4297 56.7593L51.925 43.2643L59.778 51.1089L59.7741 51.1131L38.4297 72.4578L17.0919 51.1204L17.0808 51.1093L24.941 43.2709" fill="#F3BA2F"/>
<path d="M59.7605 32.1816H70.8606V43.281H59.7605V32.1816Z" fill="#F3BA2F"/>
<path d="M46.3908 37.7248H46.3943L38.4299 29.7604L32.544 35.6462H32.5437L31.8675 36.3228L30.4728 37.7178L30.4617 37.7286L30.4728 37.74L38.4299 45.6975L46.3943 37.7331L46.3981 37.7286L46.3908 37.7248" fill="#F3BA2F"/>
</svg>
