<svg  version="1.1"    viewBox="0 0 52 52" fill="none" xmlns="http://www.w3.org/2000/svg">
<path d="M26 52C40.3594 52 52 40.3594 52 26C52 11.6406 40.3594 0 26 0C11.6406 0 0 11.6406 0 26C0 40.3594 11.6406 52 26 52Z" fill="#F0B90B"/>
<path fill-rule="evenodd" clip-rule="evenodd" d="M14.9347 19.396L26.0107 8.32L30.427 12.7364L19.351 23.8124L14.9347 19.396ZM14.9427 32.6316L32.6433 14.931L37.0596 19.3474L19.3591 37.0479L14.9427 32.6316ZM39.2634 21.5636L21.5628 39.2642L25.9789 43.68L43.68 25.9797L39.2634 21.5636ZM8.32001 26.0094L12.7364 21.593L17.1527 26.0094L12.7364 30.4257L8.32001 26.0094Z" fill="white"/>
</svg>
