<svg  version="1.1"   viewBox="0 0 330 100" fill="none" xmlns="http://www.w3.org/2000/svg">
<path d="M170.732 50.7071C171.123 50.3166 171.123 49.6834 170.732 49.2929L164.368 42.9289C163.978 42.5384 163.345 42.5384 162.954 42.9289C162.564 43.3195 162.564 43.9526 162.954 44.3431L168.611 50L162.954 55.6569C162.564 56.0474 162.564 56.6805 162.954 57.0711C163.345 57.4616 163.978 57.4616 164.368 57.0711L170.732 50.7071ZM137.909 51H170.025V49H137.909V51Z" fill="#292929"/>
<path d="M137.087 34.6304C136.689 35.0148 136.678 35.6478 137.061 36.0444L143.311 42.5067C143.694 42.9033 144.327 42.9131 144.725 42.5288C145.122 42.1444 145.134 41.5113 144.75 41.1148L139.195 35.3705L144.952 29.8029C145.35 29.4185 145.361 28.7855 144.977 28.3889C144.594 27.9923 143.961 27.9824 143.563 28.3668L137.087 34.6304ZM169.861 34.8492L137.799 34.3486L137.763 36.3483L169.825 36.8489L169.861 34.8492Z" fill="#292929"/>
<g clip-path="url(#clip0)">
<path d="M325.925 46.7076C324.744 66.5363 309.148 84.2076 288.452 84.2076C269.357 82.5637 252.314 66.3823 250.98 46.7076C250.98 25.9969 268.227 11.4165 288.452 9.20755C309.148 9.20755 327.105 26.8788 325.925 46.7076Z" fill="#79FF39"/>
<path d="M319.252 46.7076C319.252 63.7301 305.7 75.8856 288.452 77.5295C272.026 76.3479 257.653 63.7301 257.653 46.7076C257.653 29.685 271.307 18.8137 288.452 15.8856C305.135 15.8856 320.278 30.8856 319.252 46.7076Z" fill="white"/>
<path d="M284.441 21.0167C278.016 20.5485 272.523 24.8294 272.129 27.3925C271.735 29.9556 289.068 42.8036 289.068 42.8036C289.068 42.8036 290.865 21.485 284.441 21.0167Z" fill="#A9F76B"/>
<path d="M267.304 31.2966C262.684 30.9369 259.527 43.35 261.311 46.5441C263.095 49.7385 286.181 44.0813 286.181 44.0813C286.181 44.0813 271.924 31.6562 267.304 31.2966Z" fill="#A9F76B"/>
<path d="M263.71 51.9474C262.223 55.4406 269.305 66.0707 272.745 66.2795C276.184 66.4883 287.36 46.7076 287.36 46.7076C287.36 46.7076 265.197 48.4543 263.71 51.9474Z" fill="#A9F76B"/>
<path d="M278.494 69.3104C281.522 71.9816 294.817 72.5982 296.665 69.3104C298.513 66.0227 290.176 48.5568 290.176 48.5568C290.176 48.5568 275.465 66.6392 278.494 69.3104Z" fill="#A9F76B"/>
<path d="M305.392 26.8788C304.466 24.6298 297.421 20.0233 294.099 20.9199C290.777 21.8165 291.208 43.3675 291.208 43.3675C291.208 43.3675 306.318 29.1278 305.392 26.8788Z" fill="#A9F76B"/>
<path d="M315.196 46.0855C316.829 43.3062 313.808 33.1319 310.935 30.7246C308.061 28.3172 293.483 46.0855 293.483 46.0855C293.483 46.0855 313.564 48.8651 315.196 46.0855Z" fill="#A9F76B"/>
<path d="M303.8 66.5875C305.928 66.8014 314.303 56.2561 313.656 53.745C313.009 51.2339 292.661 47.3923 292.661 47.3923C292.661 47.3923 301.673 66.3738 303.8 66.5875Z" fill="#A9F76B"/>
<path d="M302.825 16.8103C303.335 16.8103 303.749 16.3963 303.749 15.8856C303.749 15.3749 303.335 14.961 302.825 14.961C302.314 14.961 301.901 15.3749 301.901 15.8856C301.901 16.3963 302.314 16.8103 302.825 16.8103Z" fill="#03EA36"/>
<path d="M283.524 81.6391C284.034 81.6391 284.448 81.2251 284.448 80.7144C284.448 80.2037 284.034 79.7898 283.524 79.7898C283.014 79.7898 282.6 80.2037 282.6 80.7144C282.6 81.2251 283.014 81.6391 283.524 81.6391Z" fill="#03EA36"/>
<path d="M323.963 45.7589C323.902 45.2517 323.443 44.8894 322.936 44.9496C322.429 45.0098 322.067 45.4697 322.128 45.9769C322.188 46.484 322.647 46.8463 323.154 46.7861C323.661 46.7259 324.023 46.266 323.963 45.7589Z" fill="#03EA36"/>
<path d="M306.829 17.7349C307.34 17.7349 307.753 17.3209 307.753 16.8102C307.753 16.2996 307.34 15.8856 306.829 15.8856C306.319 15.8856 305.905 16.2996 305.905 16.8102C305.905 17.3209 306.319 17.7349 306.829 17.7349Z" fill="#03EA36"/>
<path d="M287.528 82.5635C288.038 82.5635 288.452 82.1495 288.452 81.6389C288.452 81.1282 288.038 80.7142 287.528 80.7142C287.018 80.7142 286.604 81.1282 286.604 81.6389C286.604 82.1495 287.018 82.5635 287.528 82.5635Z" fill="#03EA36"/>
<path d="M324.408 41.6712C324.348 41.1641 323.888 40.8018 323.382 40.862C322.875 40.9222 322.513 41.3821 322.573 41.8892C322.633 42.3963 323.093 42.7586 323.599 42.6984C324.106 42.6382 324.468 42.1783 324.408 41.6712Z" fill="#03EA36"/>
<path d="M268.125 19.7898C268.352 19.7898 268.536 19.6058 268.536 19.3789C268.536 19.1519 268.352 18.9679 268.125 18.9679C267.898 18.9679 267.714 19.1519 267.714 19.3789C267.714 19.6058 267.898 19.7898 268.125 19.7898Z" fill="#03EA36"/>
<path d="M269.408 20.098C269.606 20.098 269.767 19.937 269.767 19.7384C269.767 19.5398 269.606 19.3788 269.408 19.3788C269.209 19.3788 269.048 19.5398 269.048 19.7384C269.048 19.937 269.209 20.098 269.408 20.098Z" fill="#03EA36"/>
<path d="M264.743 22.4717C263.627 21.7571 266.151 19.7767 266.661 19.7508C267.17 19.7248 267.604 20.1172 267.63 20.6272C267.656 21.1372 266.739 21.838 266.38 22.1528C265.775 22.6824 265.718 23.4508 264.743 22.4717Z" fill="#03EA36"/>
<path d="M304.827 15.4747C305.083 15.4747 305.289 15.2677 305.289 15.0124C305.289 14.757 305.083 14.55 304.827 14.55C304.572 14.55 304.365 14.757 304.365 15.0124C304.365 15.2677 304.572 15.4747 304.827 15.4747Z" fill="#03EA36"/>
<path d="M285.732 81.6389C285.987 81.6389 286.194 81.432 286.194 81.1766C286.194 80.9213 285.987 80.7143 285.732 80.7143C285.477 80.7143 285.27 80.9213 285.27 81.1766C285.27 81.432 285.477 81.6389 285.732 81.6389Z" fill="#03EA36"/>
<path d="M323.702 43.5655C323.672 43.3119 323.442 43.1308 323.189 43.1609C322.936 43.191 322.755 43.4209 322.785 43.6745C322.815 43.9281 323.045 44.1092 323.298 44.0791C323.551 44.049 323.732 43.8191 323.702 43.5655Z" fill="#03EA36"/>
<path d="M288.606 80.7145C288.861 80.7145 289.068 80.5075 289.068 80.2521C289.068 79.9968 288.861 79.7898 288.606 79.7898C288.351 79.7898 288.144 79.9968 288.144 80.2521C288.144 80.5075 288.351 80.7145 288.606 80.7145Z" fill="#03EA36"/>
<path d="M322.446 40.8177C322.416 40.5642 322.186 40.383 321.933 40.4131C321.679 40.4432 321.498 40.6732 321.528 40.9267C321.558 41.1803 321.788 41.3614 322.042 41.3313C322.295 41.3013 322.476 41.0713 322.446 40.8177Z" fill="#03EA36"/>
<path d="M289.941 81.1253C290.196 81.1253 290.403 80.9183 290.403 80.663C290.403 80.4076 290.196 80.2006 289.941 80.2006C289.686 80.2006 289.479 80.4076 289.479 80.663C289.479 80.9183 289.686 81.1253 289.941 81.1253Z" fill="#03EA36"/>
<path d="M322.697 39.4432C322.666 39.1896 322.437 39.0085 322.183 39.0386C321.93 39.0687 321.749 39.2986 321.779 39.5522C321.809 39.8057 322.039 39.9869 322.292 39.9568C322.546 39.9267 322.727 39.6967 322.697 39.4432Z" fill="#03EA36"/>
<path d="M306.265 18.865C306.463 18.865 306.624 18.704 306.624 18.5054C306.624 18.3068 306.463 18.1458 306.265 18.1458C306.067 18.1458 305.906 18.3068 305.906 18.5054C305.906 18.704 306.067 18.865 306.265 18.865Z" fill="#03EA36"/>
<path d="M304.827 17.7349C305.083 17.7349 305.289 17.5279 305.289 17.2726C305.289 17.0172 305.083 16.8102 304.827 16.8102C304.572 16.8102 304.365 17.0172 304.365 17.2726C304.365 17.5279 304.572 17.7349 304.827 17.7349Z" fill="#03EA36"/>
<path d="M301.953 14.139C302.208 14.139 302.415 13.932 302.415 13.6767C302.415 13.4213 302.208 13.2143 301.953 13.2143C301.697 13.2143 301.491 13.4213 301.491 13.6767C301.491 13.932 301.697 14.139 301.953 14.139Z" fill="#03EA36"/>
</g>
<path d="M37.5 85C58.2107 85 75 68.2107 75 47.5C75 26.7893 58.2107 10 37.5 10C16.7893 10 0 26.7893 0 47.5C0 68.2107 16.7893 85 37.5 85Z" fill="#F0B90B"/>
<path fill-rule="evenodd" clip-rule="evenodd" d="M21.5404 37.975L37.5154 22L43.8851 28.3697L27.9101 44.3448L21.5404 37.975ZM21.552 57.0648L47.0816 31.5351L53.4514 37.9049L27.9218 63.4345L21.552 57.0648ZM56.6299 41.1014L31.1003 66.631L37.4696 73L63 47.4707L56.6299 41.1014ZM12 47.5135L18.3698 41.1438L24.7395 47.5135L18.3698 53.8833L12 47.5135Z" fill="white"/>
<defs>
<clip-path id="clip0">
<rect width="75" height="75" fill="white" transform="translate(250.98 9.20755)"/>
</clip-path>
</defs>
</svg>
