<svg viewBox="0 0 343 100" fill="none" xmlns="http://www.w3.org/2000/svg">
<path d="M299.5 87C320.211 87 337 70.2107 337 49.5C337 28.7893 320.211 12 299.5 12C278.789 12 262 28.7893 262 49.5C262 70.2107 278.789 87 299.5 87Z" fill="#F0B90B"/>
<path fill-rule="evenodd" clip-rule="evenodd" d="M283.54 39.975L299.515 24L305.885 30.3697L289.91 46.3448L283.54 39.975ZM283.552 59.0648L309.082 33.5351L315.451 39.9049L289.922 65.4345L283.552 59.0648ZM318.63 43.1014L293.1 68.631L299.47 75L325 49.4707L318.63 43.1014ZM274 49.5135L280.37 43.1438L286.74 49.5135L280.37 55.8833L274 49.5135Z" fill="white"/>
<path d="M155.306 41.2818C154.908 41.6661 154.897 42.2992 155.281 42.6958L161.532 49.1595C161.915 49.5561 162.548 49.5661 162.946 49.1819C163.343 48.7976 163.354 48.1645 162.971 47.7679L157.414 42.0224L163.17 36.4559C163.567 36.0716 163.578 35.4386 163.195 35.0419C162.811 34.6453 162.178 34.6353 161.781 35.0195L155.306 41.2818ZM187.692 41.5014L156.018 41.0002L155.982 42.9998L187.657 43.5011L187.692 41.5014Z" fill="#292929"/>
<path d="M188.562 57.3779C188.952 56.9874 188.952 56.3542 188.562 55.9637L182.198 49.5997C181.807 49.2092 181.174 49.2092 180.784 49.5997C180.393 49.9903 180.393 50.6234 180.784 51.014L186.44 56.6708L180.784 62.3277C180.393 62.7182 180.393 63.3514 180.784 63.7419C181.174 64.1324 181.807 64.1324 182.198 63.7419L188.562 57.3779ZM156.127 57.6708H187.855V55.6708H156.127V57.6708Z" fill="#292929"/>
<path d="M44.5 12C65.2126 12 82 28.7908 82 49.5C82 70.2126 65.2126 87 44.5 87C23.7908 87 7 70.2109 7 49.5C7 28.7908 23.7908 12 44.5 12Z" fill="#F5AC37"/>
<path d="M45.888 52.1477H60.1374C60.4411 52.1477 60.5845 52.1477 60.6065 51.7495C60.7229 50.2999 60.7229 48.8419 60.6065 47.3906C60.6065 47.1088 60.4664 46.9924 60.161 46.9924H31.8023C31.4513 46.9924 31.3568 47.1088 31.3568 47.4379V51.6094C31.3568 52.1477 31.3568 52.1477 31.9187 52.1477H45.888V52.1477ZM59.0152 42.1171C59.0557 42.0108 59.0557 41.8944 59.0152 41.7898C58.7772 41.2717 58.4954 40.7772 58.168 40.3132C57.6753 39.52 57.0948 38.7893 56.4333 38.1329C56.1211 37.7363 55.7599 37.3803 55.3549 37.0782C53.3265 35.3519 50.9151 34.1301 48.3231 33.5159C47.0152 33.2222 45.6787 33.0822 44.3388 33.094H31.7533C31.4023 33.094 31.3551 33.234 31.3551 33.5395V41.8589C31.3551 42.2099 31.3551 42.3044 31.8006 42.3044H58.8464C58.8464 42.3044 59.081 42.2572 59.1282 42.1171H59.0135H59.0152ZM59.0152 57.023C58.6169 56.9791 58.2153 56.9791 57.817 57.023H31.8259C31.4749 57.023 31.3568 57.023 31.3568 57.4921V65.6259C31.3568 66.0006 31.3568 66.0951 31.8259 66.0951H43.8258C44.3996 66.1389 44.9733 66.0984 45.5353 65.9786C47.2768 65.8537 48.9896 65.4757 50.6231 64.853C51.2171 64.6472 51.7909 64.3789 52.3326 64.0565H52.4963C55.3094 62.5935 57.5943 60.2951 59.0354 57.4735C59.0354 57.4735 59.1991 57.1192 59.0152 57.0263V57.023ZM26.6469 70.3122V70.1721V64.7113V62.8601V57.352C26.6469 57.0466 26.6469 57.001 26.2723 57.001H21.1861C20.9043 57.001 20.7878 57.001 20.7878 56.6264V52.173H26.225C26.5288 52.173 26.6469 52.173 26.6469 51.7748V47.3687C26.6469 47.0869 26.6469 47.0177 26.2723 47.0177H21.1861C20.9043 47.0177 20.7878 47.0177 20.7878 46.6431V42.5188C20.7878 42.2606 20.7878 42.1914 21.1625 42.1914H26.2014C26.5524 42.1914 26.6469 42.1914 26.6469 41.7459V29.1131C26.6469 28.7385 26.6469 28.644 27.116 28.644H44.6932C45.969 28.6946 47.2363 28.8347 48.4901 29.0659C51.0737 29.5434 53.556 30.4665 55.8257 31.7845C57.331 32.6704 58.7165 33.7403 59.95 34.9722C60.8782 35.9358 61.7152 36.9786 62.4577 38.089C63.1951 39.2146 63.8077 40.4178 64.2887 41.675C64.3477 42.0024 64.6616 42.2234 64.989 42.1678H69.1841C69.7224 42.1678 69.7225 42.1678 69.7461 42.6841V46.5283C69.7461 46.9029 69.606 46.9974 69.2297 46.9974H65.9947C65.6674 46.9974 65.5729 46.9974 65.5965 47.4193C65.7247 48.8469 65.7247 50.2797 65.5965 51.7073C65.5965 52.1055 65.5965 52.1528 66.0437 52.1528H69.7444C69.9081 52.3637 69.7444 52.5747 69.7444 52.7873C69.768 53.059 69.768 53.3341 69.7444 53.6057V56.4425C69.7444 56.8407 69.628 56.9588 69.2753 56.9588H64.8455C64.5367 56.8998 64.2363 57.0972 64.1655 57.4043C63.1108 60.1466 61.4232 62.6053 59.243 64.5763C58.4465 65.2935 57.6095 65.9685 56.7353 66.5912C55.7971 67.1312 54.8841 67.6931 53.9222 68.1386C52.152 68.9352 50.2958 69.5224 48.3906 69.8953C46.5815 70.2193 44.7472 70.3662 42.9061 70.3409H26.6401V70.3172L26.6469 70.3122Z" fill="#FEFEFD"/>
</svg>
