<svg viewBox="0 0 75 75" fill="none" xmlns="http://www.w3.org/2000/svg">
<g >
<path d="M74.9449 36.5C73.7642 55.8 58.1679 73 37.4724 73C18.3769 71.4 1.33464 55.6501 0 36.5C0 16.3416 17.2476 2.15 37.4724 0C58.1679 0 76.1256 17.2 74.9449 36.5Z" fill="#79FF39"/>
<path d="M68.2717 36.5C68.2717 53.0686 54.72 64.9 37.4724 66.5C21.0461 65.3499 6.6731 53.0686 6.6731 36.5C6.6731 19.9314 20.3274 9.34995 37.4724 6.49994C54.1552 6.49994 69.2982 21.0999 68.2717 36.5Z" fill="white"/>
<path d="M33.4606 11.4943C27.0362 11.0385 21.5425 15.2052 21.1487 17.7C20.7548 20.1948 38.0883 32.7001 38.0883 32.7001C38.0883 32.7001 39.8849 11.9501 33.4606 11.4943Z" fill="#A9F76B"/>
<path d="M16.3238 21.5C11.7039 21.15 8.54676 33.232 10.3307 36.3409C12.1147 39.4501 35.2007 33.9438 35.2007 33.9438C35.2007 33.9438 20.9438 21.85 16.3238 21.5Z" fill="#A9F76B"/>
<path d="M12.7302 41.6002C11.2432 45.0002 18.3255 55.3468 21.7647 55.55C25.204 55.7532 36.3799 36.5 36.3799 36.5C36.3799 36.5 14.2171 38.2002 12.7302 41.6002Z" fill="#A9F76B"/>
<path d="M27.5138 58.5001C30.5426 61.1001 43.8373 61.7002 45.6854 58.5001C47.5334 55.3 39.1962 38.3 39.1962 38.3C39.1962 38.3 24.4852 55.9001 27.5138 58.5001Z" fill="#A9F76B"/>
<path d="M54.4125 17.2C53.4868 15.011 46.4414 10.5273 43.1193 11.4C39.7973 12.2727 40.228 33.249 40.228 33.249C40.228 33.249 55.3379 19.3891 54.4125 17.2Z" fill="#A9F76B"/>
<path d="M64.2164 35.8945C65.849 33.1894 62.8285 23.2863 59.9549 20.9432C57.0813 18.6001 42.5032 35.8945 42.5032 35.8945C42.5032 35.8945 62.5842 38.6 64.2164 35.8945Z" fill="#A9F76B"/>
<path d="M52.8205 55.8498C54.9478 56.058 63.3233 45.7939 62.6764 43.3498C62.0293 40.9056 41.6816 37.1665 41.6816 37.1665C41.6816 37.1665 50.6936 55.6418 52.8205 55.8498Z" fill="#A9F76B"/>
<path d="M51.8449 7.39998C52.3552 7.39998 52.7689 6.99703 52.7689 6.49998C52.7689 6.00292 52.3552 5.59998 51.8449 5.59998C51.3346 5.59998 50.9209 6.00292 50.9209 6.49998C50.9209 6.99703 51.3346 7.39998 51.8449 7.39998Z" fill="#03EA36"/>
<path d="M32.5441 70.5C33.0544 70.5 33.4681 70.0971 33.4681 69.6C33.4681 69.103 33.0544 68.7 32.5441 68.7C32.0338 68.7 31.6201 69.103 31.6201 69.6C31.6201 70.0971 32.0338 70.5 32.5441 70.5Z" fill="#03EA36"/>
<path d="M72.9827 35.5766C72.9226 35.083 72.463 34.7304 71.9563 34.789C71.4496 34.8476 71.0875 35.2952 71.1477 35.7888C71.2078 36.2824 71.6674 36.635 72.1741 36.5764C72.6809 36.5178 73.0429 36.0702 72.9827 35.5766Z" fill="#03EA36"/>
<path d="M55.8495 8.29997C56.3598 8.29997 56.7735 7.89703 56.7735 7.39997C56.7735 6.90291 56.3598 6.49997 55.8495 6.49997C55.3392 6.49997 54.9255 6.90291 54.9255 7.39997C54.9255 7.89703 55.3392 8.29997 55.8495 8.29997Z" fill="#03EA36"/>
<path d="M36.5482 71.3998C37.0585 71.3998 37.4722 70.9968 37.4722 70.4998C37.4722 70.0027 37.0585 69.5998 36.5482 69.5998C36.0379 69.5998 35.6243 70.0027 35.6243 70.4998C35.6243 70.9968 36.0379 71.3998 36.5482 71.3998Z" fill="#03EA36"/>
<path d="M73.4281 31.598C73.368 31.1044 72.9084 30.7517 72.4016 30.8103C71.8949 30.8689 71.5328 31.3165 71.593 31.8101C71.6531 32.3037 72.1127 32.6564 72.6195 32.5978C73.1262 32.5392 73.4883 32.0915 73.4281 31.598Z" fill="#03EA36"/>
<path d="M17.1453 10.3001C17.3721 10.3001 17.5559 10.121 17.5559 9.90009C17.5559 9.67918 17.3721 9.50009 17.1453 9.50009C16.9185 9.50009 16.7346 9.67918 16.7346 9.90009C16.7346 10.121 16.9185 10.3001 17.1453 10.3001Z" fill="#03EA36"/>
<path d="M18.4277 10.6C18.6261 10.6 18.787 10.4433 18.787 10.25C18.787 10.0567 18.6261 9.89999 18.4277 9.89999C18.2292 9.89999 18.0684 10.0567 18.0684 10.25C18.0684 10.4433 18.2292 10.6 18.4277 10.6Z" fill="#03EA36"/>
<path d="M13.7635 12.9105C12.6477 12.2149 15.1713 10.2873 15.6809 10.2621C16.1906 10.2368 16.6248 10.6187 16.6507 11.1151C16.6767 11.6116 15.7593 12.2936 15.4 12.6C14.7955 13.1155 14.7385 13.8634 13.7635 12.9105Z" fill="#03EA36"/>
<path d="M53.8475 6.10001C54.1026 6.10001 54.3095 5.89854 54.3095 5.65001C54.3095 5.40148 54.1026 5.20001 53.8475 5.20001C53.5923 5.20001 53.3855 5.40148 53.3855 5.65001C53.3855 5.89854 53.5923 6.10001 53.8475 6.10001Z" fill="#03EA36"/>
<path d="M34.752 70.4999C35.0072 70.4999 35.214 70.2984 35.214 70.0499C35.214 69.8014 35.0072 69.5999 34.752 69.5999C34.4969 69.5999 34.29 69.8014 34.29 70.0499C34.29 70.2984 34.4969 70.4999 34.752 70.4999Z" fill="#03EA36"/>
<path d="M72.7222 33.4417C72.6921 33.1949 72.4624 33.0186 72.209 33.0479C71.9556 33.0772 71.7746 33.301 71.8047 33.5478C71.8347 33.7946 72.0645 33.9709 72.3179 33.9416C72.5713 33.9123 72.7523 33.6885 72.7222 33.4417Z" fill="#03EA36"/>
<path d="M37.6265 69.6001C37.8817 69.6001 38.0885 69.3986 38.0885 69.1501C38.0885 68.9015 37.8817 68.7001 37.6265 68.7001C37.3714 68.7001 37.1646 68.9015 37.1646 69.1501C37.1646 69.3986 37.3714 69.6001 37.6265 69.6001Z" fill="#03EA36"/>
<path d="M71.4661 30.7673C71.436 30.5205 71.2062 30.3441 70.9529 30.3734C70.6995 30.4027 70.5185 30.6266 70.5486 30.8734C70.5786 31.1202 70.8084 31.2965 71.0618 31.2672C71.3151 31.2379 71.4962 31.0141 71.4661 30.7673Z" fill="#03EA36"/>
<path d="M38.9613 69.9999C39.2164 69.9999 39.4232 69.7985 39.4232 69.5499C39.4232 69.3014 39.2164 69.0999 38.9613 69.0999C38.7061 69.0999 38.4993 69.3014 38.4993 69.5499C38.4993 69.7985 38.7061 69.9999 38.9613 69.9999Z" fill="#03EA36"/>
<path d="M71.7166 29.4293C71.6865 29.1825 71.4567 29.0062 71.2034 29.0355C70.95 29.0648 70.769 29.2886 70.7991 29.5354C70.8291 29.7822 71.0589 29.9585 71.3123 29.9292C71.5657 29.8999 71.7467 29.6761 71.7166 29.4293Z" fill="#03EA36"/>
<path d="M55.2851 9.39989C55.4836 9.39989 55.6444 9.24319 55.6444 9.04989C55.6444 8.85659 55.4836 8.69989 55.2851 8.69989C55.0867 8.69989 54.9258 8.85659 54.9258 9.04989C54.9258 9.24319 55.0867 9.39989 55.2851 9.39989Z" fill="#03EA36"/>
<path d="M53.8475 8.29993C54.1026 8.29993 54.3095 8.09846 54.3095 7.84993C54.3095 7.6014 54.1026 7.39993 53.8475 7.39993C53.5923 7.39993 53.3855 7.6014 53.3855 7.84993C53.3855 8.09846 53.5923 8.29993 53.8475 8.29993Z" fill="#03EA36"/>
<path d="M50.9727 4.79993C51.2279 4.79993 51.4347 4.59846 51.4347 4.34993C51.4347 4.1014 51.2279 3.89993 50.9727 3.89993C50.7176 3.89993 50.5107 4.1014 50.5107 4.34993C50.5107 4.59846 50.7176 4.79993 50.9727 4.79993Z" fill="#03EA36"/>
</g>
<defs>
<clipPath id="clip0">
<rect width="75" height="73" fill="white"/>
</clipPath>
</defs>
</svg>
