<svg width="138" height="43" viewBox="0 0 138 43" fill="none" xmlns="http://www.w3.org/2000/svg">
<path d="M46.8391 19.7294H58.0662V16.1114H50.7748V1.9406H46.8391V19.7294ZM59.8097 19.7294H63.5941V7.51846H59.8097V19.7294ZM59.5069 3.67426C59.5069 4.88028 60.4909 5.86018 61.7019 5.86018C62.9129 5.86018 63.8969 4.88028 63.8969 3.67426C63.8969 2.46824 62.9129 1.48834 61.7019 1.48834C60.4909 1.48834 59.5069 2.46824 59.5069 3.67426ZM66.313 19.7294H70.0974V13.6491C70.0974 12.0662 70.4001 10.5335 72.368 10.5335C74.1089 10.5335 74.0584 12.3677 74.0584 13.2722V19.7294H77.8428V13.2722C77.8428 11.7647 78.3979 10.5335 80.1387 10.5335C81.3749 10.5335 81.8038 11.4883 81.8038 12.6189V19.7294H85.5883V12.5184C85.5883 9.55362 84.5791 7.21695 81.2488 7.21695C79.4323 7.21695 78.2465 7.84509 77.3635 9.40287C76.7075 7.92047 75.2946 7.21695 73.579 7.21695C71.7373 7.21695 70.5011 8.22197 69.9965 9.17674H69.946V7.51846H66.313V19.7294ZM97.2221 15.6842C96.5914 16.5385 95.7588 17.1666 94.5225 17.1666C93.0592 17.1666 91.9744 16.237 91.6716 14.8049H100.451V13.624C100.451 9.7295 98.2313 7.21695 94.6991 7.21695C90.9147 7.21695 87.8872 9.7295 87.8872 13.624C87.8872 17.5184 90.9147 20.031 94.6991 20.031C96.667 20.031 98.6602 19.1516 99.8712 17.6189L97.2221 15.6842ZM91.6716 12.2421C91.7725 11.0612 92.6808 9.93051 94.3459 9.93051C95.7083 9.93051 96.6923 10.9858 96.667 12.2421H91.6716ZM102.828 17.5687C102.828 18.8501 103.863 19.8802 105.15 19.8802C106.436 19.8802 107.471 18.8501 107.471 17.5687C107.471 16.2873 106.436 15.2571 105.15 15.2571C103.863 15.2571 102.828 16.2873 102.828 17.5687Z" fill="black"/>
<path d="M46.8391 38.6157H50.7748V31.681H58.2175V28.063H50.7748V24.4449H58.823V20.8268H46.8391V38.6157ZM61.2141 38.6157H64.9985V26.4047H61.2141V38.6157ZM60.9113 22.5605C60.9113 23.7665 61.8953 24.7464 63.1063 24.7464C64.3173 24.7464 65.3012 23.7665 65.3012 22.5605C65.3012 21.3545 64.3173 20.3746 63.1063 20.3746C61.8953 20.3746 60.9113 21.3545 60.9113 22.5605ZM67.7173 38.6157H71.5018V32.5353C71.5018 30.9524 71.8045 29.4197 73.7724 29.4197C75.7151 29.4197 75.7403 31.2288 75.7403 32.6358V38.6157H79.5247V31.882C79.5247 28.6157 78.8183 26.1032 74.9834 26.1032C73.1417 26.1032 71.9054 27.1082 71.4008 28.063H71.3504V26.4047H67.7173V38.6157ZM89.8996 38.6157H93.3813V32.4097C93.3813 28.3394 92.1955 26.1032 87.7804 26.1032C85.7872 26.1032 83.7689 26.7564 82.3812 28.063L84.3996 30.1233C85.2069 29.2187 86.2414 28.666 87.4776 28.666C88.7895 28.666 89.8996 29.5202 89.8996 30.8519C86.7459 30.8519 81.5991 30.9273 81.5991 35.1484C81.5991 37.6107 83.6679 38.9172 85.9638 38.9172C87.5028 38.9172 89.0166 38.3895 89.8492 37.083H89.8996V38.6157ZM89.8996 33.2639V34.068C89.8996 35.5755 88.512 36.3544 87.0235 36.3544C86.1909 36.3544 85.2322 35.9272 85.2322 35.0227C85.2322 33.3644 87.8056 33.2639 88.9661 33.2639H89.8996ZM95.7556 38.6157H99.54V32.5353C99.54 30.9524 99.8427 29.4197 101.811 29.4197C103.753 29.4197 103.779 31.2288 103.779 32.6358V38.6157H107.563V31.882C107.563 28.6157 106.857 26.1032 103.022 26.1032C101.18 26.1032 99.9437 27.1082 99.4391 28.063H99.3886V26.4047H95.7556V38.6157ZM121.041 27.7363C119.855 26.5303 118.114 26.1032 116.676 26.1032C112.892 26.1032 109.864 28.6157 109.864 32.5102C109.864 36.4046 112.892 38.9172 116.676 38.9172C118.114 38.9172 119.855 38.49 121.041 37.284L118.543 34.671C118.114 35.1735 117.509 35.6006 116.676 35.6006C114.784 35.6006 113.649 34.3443 113.649 32.5102C113.649 30.676 114.784 29.4197 116.676 29.4197C117.458 29.4197 118.165 29.8218 118.543 30.3494L121.041 27.7363ZM131.371 34.5705C130.74 35.4247 129.907 36.0529 128.671 36.0529C127.208 36.0529 126.123 35.1232 125.82 33.6911H134.6V32.5102C134.6 28.6157 132.38 26.1032 128.848 26.1032C125.063 26.1032 122.036 28.6157 122.036 32.5102C122.036 36.4046 125.063 38.9172 128.848 38.9172C130.816 38.9172 132.809 38.0378 134.02 36.5051L131.371 34.5705ZM125.82 31.1283C125.921 29.9474 126.829 28.8167 128.494 28.8167C129.857 28.8167 130.841 29.872 130.816 31.1283H125.82Z" fill="#03EA36"/>
<path d="M41.4542 20.6569C40.8011 31.5795 32.1743 41.3137 20.7271 41.3137C10.1648 40.4082 0.738225 31.4947 0 20.6569C0 9.24839 9.54013 1.21677 20.7271 0C32.1743 0 42.1073 9.73419 41.4542 20.6569Z" fill="#79FF39"/>
<path d="M37.763 20.6569C37.763 30.0337 30.2672 36.7296 20.727 37.6351C11.6412 36.9842 3.69104 30.0337 3.69104 20.6569C3.69104 11.28 11.2437 5.29153 20.727 3.67859C29.9548 3.67859 38.3308 11.9413 37.763 20.6569Z" fill="white"/>
<path d="M18.5081 6.50506C14.9545 6.24713 11.9158 8.60525 11.698 10.0171C11.4801 11.429 21.0677 18.5063 21.0677 18.5063C21.0677 18.5063 22.0615 6.76301 18.5081 6.50506Z" fill="#A9F76B"/>
<path d="M9.02917 12.1677C6.47375 11.9696 4.72745 18.8074 5.71421 20.5668C6.70095 22.3264 19.4705 19.2102 19.4705 19.2102C19.4705 19.2102 11.5846 12.3658 9.02917 12.1677Z" fill="#A9F76B"/>
<path d="M7.04142 23.5433C6.21896 25.4675 10.1363 31.3231 12.0387 31.4381C13.941 31.5531 20.1228 20.6569 20.1228 20.6569C20.1228 20.6569 7.86387 21.619 7.04142 23.5433Z" fill="#A9F76B"/>
<path d="M15.2188 33.1076C16.894 34.5791 24.2477 34.9187 25.2699 33.1076C26.2922 31.2966 21.6806 21.6755 21.6806 21.6755C21.6806 21.6755 13.5435 31.6362 15.2188 33.1076Z" fill="#A9F76B"/>
<path d="M30.097 9.73417C29.585 8.49531 25.688 5.95782 23.8505 6.45172C22.013 6.94561 22.2512 18.8169 22.2512 18.8169C22.2512 18.8169 30.6089 10.973 30.097 9.73417Z" fill="#A9F76B"/>
<path d="M35.52 20.3142C36.423 18.7833 34.7523 13.1787 33.1628 11.8527C31.5734 10.5266 23.5098 20.3142 23.5098 20.3142C23.5098 20.3142 34.6171 21.8454 35.52 20.3142Z" fill="#A9F76B"/>
<path d="M29.2165 31.6077C30.3932 31.7255 35.0259 25.9167 34.6681 24.5334C34.3102 23.1502 23.0553 21.0341 23.0553 21.0341C23.0553 21.0341 28.0401 31.49 29.2165 31.6077Z" fill="#A9F76B"/>
<path d="M28.6769 4.18795C28.9592 4.18795 29.188 3.9599 29.188 3.6786C29.188 3.39729 28.9592 3.16925 28.6769 3.16925C28.3947 3.16925 28.1658 3.39729 28.1658 3.6786C28.1658 3.9599 28.3947 4.18795 28.6769 4.18795Z" fill="#03EA36"/>
<path d="M18.0011 39.8989C18.2834 39.8989 18.5122 39.6708 18.5122 39.3895C18.5122 39.1082 18.2834 38.8802 18.0011 38.8802C17.7189 38.8802 17.4901 39.1082 17.4901 39.3895C17.4901 39.6708 17.7189 39.8989 18.0011 39.8989Z" fill="#03EA36"/>
<path d="M40.3689 20.1343C40.3356 19.8549 40.0814 19.6553 39.8011 19.6885C39.5209 19.7217 39.3206 19.975 39.3539 20.2543C39.3872 20.5337 39.6413 20.7333 39.9216 20.7001C40.2019 20.6669 40.4022 20.4136 40.3689 20.1343Z" fill="#03EA36"/>
<path d="M30.8921 4.69728C31.1743 4.69728 31.4031 4.46924 31.4031 4.18794C31.4031 3.90663 31.1743 3.67859 30.8921 3.67859C30.6098 3.67859 30.381 3.90663 30.381 4.18794C30.381 4.46924 30.6098 4.69728 30.8921 4.69728Z" fill="#03EA36"/>
<path d="M20.2159 40.4082C20.4982 40.4082 20.727 40.1801 20.727 39.8988C20.727 39.6175 20.4982 39.3895 20.2159 39.3895C19.9337 39.3895 19.7048 39.6175 19.7048 39.8988C19.7048 40.1801 19.9337 40.4082 20.2159 40.4082Z" fill="#03EA36"/>
<path d="M40.6153 17.8826C40.582 17.6033 40.3278 17.4037 40.0475 17.4369C39.7672 17.47 39.5669 17.7233 39.6002 18.0027C39.6335 18.282 39.8877 18.4816 40.168 18.4484C40.4483 18.4153 40.6485 18.1619 40.6153 17.8826Z" fill="#03EA36"/>
<path d="M9.48349 5.82922C9.60894 5.82922 9.71064 5.72787 9.71064 5.60284C9.71064 5.47782 9.60894 5.37646 9.48349 5.37646C9.35804 5.37646 9.25635 5.47782 9.25635 5.60284C9.25635 5.72787 9.35804 5.82922 9.48349 5.82922Z" fill="#03EA36"/>
<path d="M10.1929 5.999C10.3027 5.999 10.3916 5.91032 10.3916 5.80092C10.3916 5.69153 10.3027 5.60284 10.1929 5.60284C10.0831 5.60284 9.99414 5.69153 9.99414 5.80092C9.99414 5.91032 10.0831 5.999 10.1929 5.999Z" fill="#03EA36"/>
<path d="M7.61288 7.30651C6.99573 6.91285 8.39161 5.82198 8.6735 5.80768C8.95539 5.79338 9.19555 6.00952 9.20991 6.29046C9.22427 6.57141 8.71687 6.95743 8.51811 7.13083C8.18375 7.42256 8.15218 7.84583 7.61288 7.30651Z" fill="#03EA36"/>
<path d="M29.7846 3.45222C29.9258 3.45222 30.0402 3.3382 30.0402 3.19754C30.0402 3.05689 29.9258 2.94287 29.7846 2.94287C29.6435 2.94287 29.5291 3.05689 29.5291 3.19754C29.5291 3.3382 29.6435 3.45222 29.7846 3.45222Z" fill="#03EA36"/>
<path d="M19.2223 39.8988C19.3634 39.8988 19.4778 39.7848 19.4778 39.6441C19.4778 39.5035 19.3634 39.3895 19.2223 39.3895C19.0811 39.3895 18.9667 39.5035 18.9667 39.6441C18.9667 39.7848 19.0811 39.8988 19.2223 39.8988Z" fill="#03EA36"/>
<path d="M40.2248 18.9261C40.2082 18.7864 40.0811 18.6866 39.941 18.7032C39.8008 18.7198 39.7007 18.8464 39.7173 18.9861C39.7339 19.1258 39.8611 19.2256 40.0012 19.209C40.1413 19.1924 40.2415 19.0657 40.2248 18.9261Z" fill="#03EA36"/>
<path d="M20.8123 39.3896C20.9534 39.3896 21.0678 39.2756 21.0678 39.1349C21.0678 38.9943 20.9534 38.8802 20.8123 38.8802C20.6712 38.8802 20.5568 38.9943 20.5568 39.1349C20.5568 39.2756 20.6712 39.3896 20.8123 39.3896Z" fill="#03EA36"/>
<path d="M39.5299 17.4125C39.5133 17.2728 39.3862 17.173 39.2461 17.1896C39.1059 17.2062 39.0058 17.3328 39.0224 17.4725C39.0391 17.6122 39.1662 17.712 39.3063 17.6954C39.4465 17.6788 39.5466 17.5521 39.5299 17.4125Z" fill="#03EA36"/>
<path d="M21.5505 39.6159C21.6916 39.6159 21.8061 39.5018 21.8061 39.3612C21.8061 39.2205 21.6916 39.1065 21.5505 39.1065C21.4094 39.1065 21.295 39.2205 21.295 39.3612C21.295 39.5018 21.4094 39.6159 21.5505 39.6159Z" fill="#03EA36"/>
<path d="M39.6686 16.6553C39.652 16.5156 39.5249 16.4158 39.3847 16.4324C39.2446 16.449 39.1445 16.5756 39.1611 16.7153C39.1777 16.855 39.3048 16.9548 39.445 16.9382C39.5851 16.9216 39.6852 16.7949 39.6686 16.6553Z" fill="#03EA36"/>
<path d="M30.5798 5.3198C30.6896 5.3198 30.7786 5.23112 30.7786 5.12172C30.7786 5.01233 30.6896 4.92365 30.5798 4.92365C30.47 4.92365 30.381 5.01233 30.381 5.12172C30.381 5.23112 30.47 5.3198 30.5798 5.3198Z" fill="#03EA36"/>
<path d="M29.7846 4.69727C29.9258 4.69727 30.0402 4.58325 30.0402 4.4426C30.0402 4.30195 29.9258 4.18793 29.7846 4.18793C29.6435 4.18793 29.5291 4.30195 29.5291 4.4426C29.5291 4.58325 29.6435 4.69727 29.7846 4.69727Z" fill="#03EA36"/>
<path d="M28.1945 2.7165C28.3356 2.7165 28.45 2.60248 28.45 2.46183C28.45 2.32117 28.3356 2.20715 28.1945 2.20715C28.0534 2.20715 27.939 2.32117 27.939 2.46183C27.939 2.60248 28.0534 2.7165 28.1945 2.7165Z" fill="#03EA36"/>
</svg>
