<svg  version="1.1"   viewBox="0 0 77 75" fill="none" xmlns="http://www.w3.org/2000/svg">
<g clip-path="url(#clip0)">
<path d="M76.9024 37.5C75.6912 57.3288 59.6918 75 38.4616 75C18.8726 73.3561 1.39 57.1748 0.020874 37.5C0.020874 16.7893 17.7141 2.2089 38.4616 0C59.6918 0 78.1136 17.6712 76.9024 37.5Z" fill="#79FF39"/>
<path d="M70.0568 37.5C70.0568 54.5226 56.1549 66.6781 38.4617 68.322C21.6109 67.1403 6.86646 54.5226 6.86646 37.5C6.86646 20.4775 20.8736 9.60613 38.4617 6.67804C55.5755 6.67804 71.1098 21.678 70.0568 37.5Z" fill="white"/>
<path d="M34.3462 11.8092C27.7557 11.341 22.1201 15.6218 21.7161 18.185C21.3121 20.7481 39.0934 33.596 39.0934 33.596C39.0934 33.596 40.9365 12.2775 34.3462 11.8092Z" fill="#A9F76B"/>
<path d="M16.7665 22.089C12.0272 21.7294 8.78852 34.1425 10.6186 37.3365C12.4486 40.5309 36.1312 34.8738 36.1312 34.8738C36.1312 34.8738 21.5059 22.4486 16.7665 22.089Z" fill="#A9F76B"/>
<path d="M13.08 42.7399C11.5546 46.2331 18.8199 56.8631 22.348 57.0719C25.8761 57.2807 37.3409 37.5 37.3409 37.5C37.3409 37.5 14.6053 39.2467 13.08 42.7399Z" fill="#A9F76B"/>
<path d="M28.2458 60.1029C31.3528 62.7741 44.991 63.3906 46.8869 60.1029C48.7827 56.8151 40.23 39.3493 40.23 39.3493C40.23 39.3493 25.1388 57.4316 28.2458 60.1029Z" fill="#A9F76B"/>
<path d="M55.8393 17.6713C54.8897 15.4223 47.6622 10.8158 44.2543 11.7124C40.8464 12.609 41.2883 34.1599 41.2883 34.1599C41.2883 34.1599 56.7886 19.9203 55.8393 17.6713Z" fill="#A9F76B"/>
<path d="M65.8968 36.878C67.5715 34.0987 64.4729 23.9243 61.5251 21.517C58.5773 19.1097 43.6224 36.878 43.6224 36.878C43.6224 36.878 64.2224 39.6575 65.8968 36.878Z" fill="#A9F76B"/>
<path d="M54.2063 57.3799C56.3885 57.5939 64.9804 47.0486 64.3169 44.5375C63.653 42.0263 42.7795 38.1848 42.7795 38.1848C42.7795 38.1848 52.0244 57.1662 54.2063 57.3799Z" fill="#A9F76B"/>
<path d="M53.2054 7.60272C53.7289 7.60272 54.1533 7.18873 54.1533 6.67806C54.1533 6.16739 53.7289 5.7534 53.2054 5.7534C52.6819 5.7534 52.2576 6.16739 52.2576 6.67806C52.2576 7.18873 52.6819 7.60272 53.2054 7.60272Z" fill="#03EA36"/>
<path d="M33.406 72.4315C33.9295 72.4315 34.3538 72.0175 34.3538 71.5069C34.3538 70.9962 33.9295 70.5822 33.406 70.5822C32.8825 70.5822 32.4581 70.9962 32.4581 71.5069C32.4581 72.0175 32.8825 72.4315 33.406 72.4315Z" fill="#03EA36"/>
<path d="M74.8895 36.5513C74.8278 36.0442 74.3564 35.6819 73.8365 35.7421C73.3167 35.8023 72.9453 36.2622 73.007 36.7693C73.0688 37.2764 73.5402 37.6387 74.06 37.5785C74.5798 37.5183 74.9512 37.0584 74.8895 36.5513Z" fill="#03EA36"/>
<path d="M57.3136 8.52736C57.8371 8.52736 58.2614 8.11337 58.2614 7.6027C58.2614 7.09202 57.8371 6.67804 57.3136 6.67804C56.7901 6.67804 56.3657 7.09202 56.3657 7.6027C56.3657 8.11337 56.7901 8.52736 57.3136 8.52736Z" fill="#03EA36"/>
<path d="M37.5135 73.356C38.037 73.356 38.4614 72.942 38.4614 72.4313C38.4614 71.9206 38.037 71.5067 37.5135 71.5067C36.99 71.5067 36.5657 71.9206 36.5657 72.4313C36.5657 72.942 36.99 73.356 37.5135 73.356Z" fill="#03EA36"/>
<path d="M75.3465 32.4637C75.2848 31.9565 74.8133 31.5942 74.2935 31.6544C73.7736 31.7146 73.4022 32.1745 73.4639 32.6817C73.5257 33.1888 73.9971 33.5511 74.517 33.4909C75.0368 33.4307 75.4082 32.9708 75.3465 32.4637Z" fill="#03EA36"/>
<path d="M17.609 10.5823C17.8417 10.5823 18.0303 10.3983 18.0303 10.1713C18.0303 9.94435 17.8417 9.76036 17.609 9.76036C17.3764 9.76036 17.1877 9.94435 17.1877 10.1713C17.1877 10.3983 17.3764 10.5823 17.609 10.5823Z" fill="#03EA36"/>
<path d="M18.9248 10.8904C19.1283 10.8904 19.2934 10.7294 19.2934 10.5308C19.2934 10.3322 19.1283 10.1712 18.9248 10.1712C18.7212 10.1712 18.5562 10.3322 18.5562 10.5308C18.5562 10.7294 18.7212 10.8904 18.9248 10.8904Z" fill="#03EA36"/>
<path d="M14.1399 13.2642C12.9953 12.5495 15.5841 10.5692 16.1069 10.5432C16.6297 10.5173 17.0751 10.9097 17.1017 11.4197C17.1284 11.9297 16.1873 12.6305 15.8187 12.9452C15.1986 13.4748 15.1401 14.2432 14.1399 13.2642Z" fill="#03EA36"/>
<path d="M55.2598 6.26714C55.5215 6.26714 55.7337 6.06015 55.7337 5.80481C55.7337 5.54947 55.5215 5.34248 55.2598 5.34248C54.9981 5.34248 54.7859 5.54947 54.7859 5.80481C54.7859 6.06015 54.9981 6.26714 55.2598 6.26714Z" fill="#03EA36"/>
<path d="M35.6708 72.4314C35.9326 72.4314 36.1448 72.2244 36.1448 71.9691C36.1448 71.7138 35.9326 71.5068 35.6708 71.5068C35.4091 71.5068 35.1969 71.7138 35.1969 71.9691C35.1969 72.2244 35.4091 72.4314 35.6708 72.4314Z" fill="#03EA36"/>
<path d="M74.6223 34.358C74.5915 34.1044 74.3558 33.9232 74.0958 33.9533C73.8359 33.9834 73.6502 34.2134 73.6811 34.4669C73.7119 34.7205 73.9476 34.9016 74.2076 34.8715C74.4675 34.8415 74.6532 34.6115 74.6223 34.358Z" fill="#03EA36"/>
<path d="M38.6196 71.5069C38.8813 71.5069 39.0935 71.2999 39.0935 71.0446C39.0935 70.7892 38.8813 70.5823 38.6196 70.5823C38.3578 70.5823 38.1456 70.7892 38.1456 71.0446C38.1456 71.2999 38.3578 71.5069 38.6196 71.5069Z" fill="#03EA36"/>
<path d="M73.3336 31.6102C73.3027 31.3566 73.067 31.1755 72.8071 31.2056C72.5472 31.2357 72.3615 31.4656 72.3924 31.7192C72.4232 31.9727 72.6589 32.1539 72.9188 32.1238C73.1788 32.0937 73.3644 31.8638 73.3336 31.6102Z" fill="#03EA36"/>
<path d="M39.9888 71.9177C40.2506 71.9177 40.4627 71.7107 40.4627 71.4554C40.4627 71.2001 40.2506 70.9931 39.9888 70.9931C39.7271 70.9931 39.5149 71.2001 39.5149 71.4554C39.5149 71.7107 39.7271 71.9177 39.9888 71.9177Z" fill="#03EA36"/>
<path d="M73.5908 30.2356C73.56 29.9821 73.3242 29.8009 73.0643 29.831C72.8044 29.8611 72.6187 30.0911 72.6496 30.3446C72.6804 30.5982 72.9161 30.7793 73.1761 30.7492C73.436 30.7191 73.6217 30.4892 73.5908 30.2356Z" fill="#03EA36"/>
<path d="M56.7346 9.65741C56.9382 9.65741 57.1032 9.49642 57.1032 9.29782C57.1032 9.09923 56.9382 8.93823 56.7346 8.93823C56.531 8.93823 56.366 9.09923 56.366 9.29782C56.366 9.49642 56.531 9.65741 56.7346 9.65741Z" fill="#03EA36"/>
<path d="M55.2598 8.52735C55.5215 8.52735 55.7337 8.32035 55.7337 8.06502C55.7337 7.80968 55.5215 7.60269 55.2598 7.60269C54.9981 7.60269 54.7859 7.80968 54.7859 8.06502C54.7859 8.32035 54.9981 8.52735 55.2598 8.52735Z" fill="#03EA36"/>
<path d="M52.3108 4.93145C52.5726 4.93145 52.7848 4.72445 52.7848 4.46912C52.7848 4.21378 52.5726 4.00679 52.3108 4.00679C52.0491 4.00679 51.8369 4.21378 51.8369 4.46912C51.8369 4.72445 52.0491 4.93145 52.3108 4.93145Z" fill="#03EA36"/>
</g>
<defs>
<clip-path id="clip0">
<rect width="76.938" height="75" fill="white" transform="translate(0.020874)"/>
</clip-path>
</defs>
</svg>
