<svg viewBox="0 0 466 466" fill="none" xmlns="http://www.w3.org/2000/svg">
<g>
<path d="M315.165 374.089C325.765 367.969 325.765 358.047 315.165 351.928C304.565 345.808 287.38 345.808 276.781 351.928C266.181 358.047 266.181 367.969 276.781 374.089C287.38 380.208 304.566 380.209 315.165 374.089Z" fill="#F0F2DF"/>
<path d="M327.438 374.857C338.038 368.737 338.037 358.815 327.438 352.696C316.838 346.576 299.653 346.576 289.053 352.695C278.454 358.815 278.454 368.737 289.054 374.857C299.653 380.976 316.839 380.976 327.438 374.857Z" fill="#F0F2DF"/>
<path d="M324.509 415.074C335.108 408.955 335.108 399.033 324.508 392.913C313.909 386.793 296.723 386.793 286.124 392.913C275.524 399.033 275.524 408.954 286.124 415.074C296.724 421.194 313.909 421.194 324.509 415.074Z" fill="#F0F2DF"/>
<path d="M365.872 386.603C375.173 381.233 373.743 371.7 362.677 365.311C351.611 358.922 335.1 358.096 325.798 363.466C316.496 368.837 317.926 378.37 328.992 384.759C340.058 391.148 356.57 391.973 365.872 386.603Z" fill="#F0F2DF"/>
<path d="M244.198 237.293L52.7606 347.82L173.503 417.53L364.94 307.004L244.198 237.293Z" fill="#E8FDD7"/>
<path fill-rule="evenodd" clip-rule="evenodd" d="M425.321 180.811C426.885 179.974 429.011 180.131 431.352 181.483C436.151 184.254 440.05 191.003 440.05 196.546C440.05 199.513 438.932 201.537 437.158 202.351L402.017 222.639L400.846 220.609C400.408 220.435 399.962 220.217 399.506 219.954C394.705 217.183 390.809 210.433 390.809 204.891C390.809 204.364 390.844 203.867 390.912 203.402L389.732 201.358L425.091 180.943C425.165 180.897 425.243 180.853 425.321 180.811V180.811Z" fill="#FFB314"/>
<path d="M395.911 222.012C400.715 224.785 404.608 222.537 404.608 216.991C404.608 211.445 400.715 204.701 395.911 201.928C391.108 199.155 387.215 201.403 387.215 206.949C387.215 212.495 391.108 219.239 395.911 222.012Z" fill="#FC9006"/>
<path fill-rule="evenodd" clip-rule="evenodd" d="M390.468 206.105C391.455 205.577 392.798 205.676 394.276 206.53C397.306 208.279 399.767 212.541 399.767 216.04C399.767 217.914 399.061 219.191 397.941 219.706L380.949 229.516L380.21 228.234C379.934 228.124 379.652 227.986 379.364 227.82C376.332 226.07 373.872 221.809 373.872 218.309C373.872 217.977 373.895 217.663 373.938 217.37L373.193 216.079L390.323 206.189C390.369 206.16 390.417 206.132 390.467 206.106L390.468 206.105Z" fill="#DFF6FF"/>
<path d="M377.105 229.14C380.138 230.891 382.596 229.472 382.596 225.97C382.596 222.468 380.138 218.21 377.105 216.46C374.072 214.709 371.614 216.128 371.614 219.63C371.614 223.131 374.072 227.389 377.105 229.14Z" fill="#F9A825"/>
<path fill-rule="evenodd" clip-rule="evenodd" d="M381.012 234.071L381.409 235.97L386.706 232.911C386.924 232.795 387.14 232.67 387.353 232.537H387.355C388.136 232.049 388.887 231.45 389.589 230.734C394.428 225.813 395.17 217.313 391.247 211.768L320.901 112.339C316.978 106.793 309.864 106.288 305.025 111.21C300.187 116.133 299.445 124.632 303.367 130.177L373.714 229.606C375.608 232.284 378.245 233.786 381.012 234.071Z" fill="#FFB314"/>
<path fill-rule="evenodd" clip-rule="evenodd" d="M383.529 234.221C388.368 229.298 389.111 220.799 385.187 215.254L314.841 115.825C310.918 110.279 303.804 109.774 298.966 114.696C294.127 119.619 293.384 128.118 297.308 133.663L367.654 233.092C371.578 238.638 378.691 239.143 383.529 234.221Z" fill="#FC9006"/>
<path d="M305.262 148.552C314.665 153.981 322.288 149.581 322.288 138.724C322.288 127.866 314.665 114.663 305.262 109.234C295.858 103.805 288.235 108.206 288.235 119.063C288.235 129.92 295.858 143.123 305.262 148.552Z" fill="#F9A825"/>
<path fill-rule="evenodd" clip-rule="evenodd" d="M292.267 108.619C295.39 106.213 300.027 106.22 305.2 109.207C312.362 113.342 318.496 122 321.01 130.689L321.273 131.648C321.273 131.648 356.011 258.534 367.527 300.596C368.137 302.824 367.342 305.198 365.513 306.609C365.326 306.753 365.132 306.885 364.933 307.003V307.027L352.414 314.255V303.123L245.44 241.362C241.867 239.299 240.353 234.923 241.886 231.093L283.729 126.575L281.072 128.11V115.083L292.267 108.619Z" fill="#FFDA1D"/>
<path fill-rule="evenodd" clip-rule="evenodd" d="M233.153 248.443C229.579 246.381 228.066 242.005 229.6 238.176C239.949 212.32 276.839 120.174 276.839 120.174H276.84C279.164 113.853 285.487 112.001 292.912 116.289C300.074 120.424 306.208 129.082 308.721 137.77L308.986 138.729C308.986 138.729 343.724 265.616 355.24 307.678C355.85 309.906 355.053 312.281 353.225 313.692C351.397 315.102 348.899 315.269 346.899 314.114C319.613 298.362 253.703 260.308 233.153 248.443Z" fill="#FC9006"/>
<path d="M292.918 148.036C298.669 151.357 303.331 148.666 303.331 142.025C303.331 135.385 298.669 127.31 292.918 123.989C287.166 120.669 282.504 123.36 282.504 130.001C282.504 136.641 287.166 144.716 292.918 148.036Z" fill="white"/>
<path fill-rule="evenodd" clip-rule="evenodd" d="M322.749 75.2449L362.912 144.807L362.911 210.39L322.75 233.578L265.952 200.786L225.791 131.224L225.791 65.6405L265.952 42.4528L322.749 75.2449Z" fill="#79FF4A"/>
<path d="M265.957 42.4523L251.16 50.995L307.958 83.787L322.754 75.2442L265.957 42.4523Z" fill="#BAFEA2"/>
<path fill-rule="evenodd" clip-rule="evenodd" d="M362.918 144.801L348.122 153.344L307.961 83.7825L322.757 75.2398L362.918 144.801Z" fill="#79FF4A"/>
<path fill-rule="evenodd" clip-rule="evenodd" d="M362.915 144.818L348.118 153.361L348.118 218.945L362.915 210.402L362.915 144.818Z" fill="#43D012"/>
<path fill-rule="evenodd" clip-rule="evenodd" d="M307.959 83.8038L348.122 153.366L348.121 218.949L307.96 242.137L251.162 209.345L211.001 139.782L211.001 74.1995L251.162 51.0118L307.959 83.8038Z" fill="#49E513"/>
<path fill-rule="evenodd" clip-rule="evenodd" d="M305.993 88.1188L343.388 152.887L343.387 213.95L305.994 235.54L253.11 205.008L215.717 140.239L215.717 79.1763L253.111 57.5867L305.993 88.1188Z" fill="#79FF4A"/>
<path fill-rule="evenodd" clip-rule="evenodd" d="M272.278 206.601C273.575 205.02 275.354 203.538 277.619 202.231C288.212 196.115 305.411 196.115 316.003 202.231C319.38 204.18 321.679 206.516 322.904 208.994L323.949 208.391V215.079C323.949 219.091 321.3 223.102 316.003 226.16C305.411 232.275 288.212 232.275 277.619 226.16C272.614 223.27 269.975 219.529 269.699 215.742C269.667 215.3 269.667 214.858 269.699 214.417V208.09L272.278 206.601Z" fill="#FDC210"/>
<path d="M316.003 219.732C326.603 213.613 326.602 203.691 316.003 197.571C305.403 191.451 288.218 191.451 277.618 197.571C267.019 203.69 267.019 213.612 277.619 219.732C288.218 225.852 305.404 225.852 316.003 219.732Z" fill="#FFDA1D"/>
<path d="M312.279 217.578C320.818 212.648 320.818 204.655 312.279 199.724C303.739 194.794 289.894 194.794 281.355 199.724C272.815 204.654 272.815 212.648 281.355 217.578C289.894 222.509 303.739 222.509 312.279 217.578Z" fill="#FCAA06"/>
<path d="M312.279 219.285C320.818 214.355 320.818 206.361 312.279 201.431C303.739 196.501 289.894 196.501 281.355 201.431C272.815 206.361 272.815 214.355 281.355 219.285C289.894 224.215 303.739 224.215 312.279 219.285Z" fill="#FDC210"/>
<path fill-rule="evenodd" clip-rule="evenodd" d="M286.016 190.619C287.312 189.037 289.092 187.556 291.356 186.248C301.95 180.133 319.149 180.133 329.741 186.248C333.117 188.197 335.417 190.534 336.642 193.011L337.687 192.409V199.097C337.687 203.108 335.038 207.12 329.741 210.177C319.149 216.293 301.95 216.293 291.356 210.177C286.351 207.288 283.713 203.547 283.437 199.759C283.405 199.318 283.405 198.875 283.437 198.434V192.108L286.016 190.619Z" fill="#FDC210"/>
<path d="M329.741 203.75C340.34 197.63 340.34 187.708 329.74 181.588C319.141 175.469 301.956 175.469 291.356 181.588C280.757 187.708 280.757 197.63 291.356 203.749C301.956 209.869 319.141 209.869 329.741 203.75Z" fill="#FFDA1D"/>
<path d="M326.017 201.596C334.556 196.666 334.556 188.672 326.016 183.742C317.477 178.812 303.632 178.812 295.092 183.742C286.553 188.672 286.553 196.666 295.092 201.596C303.632 206.526 317.477 206.526 326.017 201.596Z" fill="#FCAA06"/>
<path d="M326.017 203.303C334.556 198.372 334.556 190.379 326.016 185.448C317.477 180.518 303.632 180.518 295.092 185.448C286.553 190.379 286.553 198.372 295.092 203.302C303.632 208.233 317.477 208.233 326.017 203.303Z" fill="#FDC210"/>
<path fill-rule="evenodd" clip-rule="evenodd" d="M258.882 159.046C260.178 157.464 261.958 155.982 264.222 154.675C274.816 148.559 292.015 148.559 302.607 154.675C305.983 156.624 308.283 158.96 309.508 161.438L310.553 160.835V167.524C310.553 171.535 307.904 175.547 302.607 178.604C292.015 184.72 274.816 184.72 264.222 178.604C259.217 175.715 256.579 171.973 256.303 168.186C256.271 167.744 256.271 167.302 256.303 166.861V160.535L258.882 159.046Z" fill="#FDC210"/>
<path d="M302.607 172.176C313.206 166.057 313.206 156.135 302.606 150.015C292.007 143.896 274.822 143.895 264.222 150.015C253.623 156.135 253.623 166.056 264.222 172.176C274.822 178.296 292.007 178.296 302.607 172.176Z" fill="#FFDA1D"/>
<path d="M298.883 170.023C307.422 165.093 307.422 157.099 298.882 152.169C290.343 147.238 276.498 147.238 267.958 152.168C259.419 157.099 259.419 165.092 267.958 170.023C276.498 174.953 290.343 174.953 298.883 170.023Z" fill="#FCAA06"/>
<path d="M298.883 171.729C307.422 166.799 307.422 158.806 298.882 153.875C290.343 148.945 276.498 148.945 267.958 153.875C259.419 158.805 259.419 166.799 267.958 171.729C276.498 176.659 290.343 176.66 298.883 171.729Z" fill="#FDC210"/>
<path fill-rule="evenodd" clip-rule="evenodd" d="M176.414 190.935C177.988 189.583 180.008 188.416 182.458 187.509C193.923 183.267 210.497 186.309 219.449 194.298C222.302 196.845 224.038 199.588 224.71 202.282L225.841 201.864L224.467 208.552C223.644 212.564 220.267 216.107 214.534 218.228C203.071 222.47 186.497 219.427 177.544 211.438C173.314 207.663 171.54 203.455 172.052 199.619C172.112 199.172 172.203 198.73 172.324 198.294L173.623 191.968L176.414 190.935Z" fill="#FDC210"/>
<path d="M215.857 211.798C227.329 207.554 229.366 197.632 220.408 189.637C211.45 181.643 194.889 178.603 183.418 182.847C171.947 187.092 169.91 197.014 178.867 205.009C187.825 213.003 204.386 216.043 215.857 211.798Z" fill="#FFDA1D"/>
<path d="M212.711 209C221.952 205.58 223.594 197.587 216.377 191.146C209.16 184.705 195.818 182.256 186.576 185.676C177.334 189.096 175.693 197.089 182.91 203.53C190.127 209.971 203.469 212.42 212.711 209Z" fill="#FCAA06"/>
<path d="M212.355 210.735C221.597 207.315 223.238 199.322 216.022 192.881C208.805 186.44 195.462 183.991 186.221 187.411C176.979 190.831 175.337 198.824 182.554 205.265C189.771 211.706 203.114 214.155 212.355 210.735Z" fill="#FDC210"/>
<path fill-rule="evenodd" clip-rule="evenodd" d="M230.426 181.181C232 179.829 234.02 178.662 236.471 177.755C247.935 173.513 264.509 176.556 273.461 184.545C276.314 187.091 278.051 189.834 278.722 192.529L279.853 192.111L278.479 198.799C277.656 202.81 274.279 206.353 268.547 208.474C257.084 212.716 240.509 209.674 231.556 201.684C227.327 197.91 225.552 193.702 226.064 189.865C226.124 189.418 226.215 188.976 226.336 188.541L227.635 182.214L230.426 181.181Z" fill="#FDC210"/>
<path d="M269.87 202.045C281.341 197.8 283.378 187.878 274.42 179.884C265.462 171.889 248.901 168.849 237.43 173.094C225.959 177.339 223.922 187.261 232.879 195.255C241.837 203.25 258.398 206.29 269.87 202.045Z" fill="#FFDA1D"/>
<path d="M266.723 199.247C275.965 195.827 277.606 187.833 270.389 181.392C263.172 174.952 249.83 172.503 240.588 175.922C231.347 179.342 229.705 187.336 236.922 193.776C244.139 200.217 257.481 202.666 266.723 199.247Z" fill="#FCAA06"/>
<path d="M266.367 200.981C275.609 197.562 277.251 189.568 270.034 183.127C262.817 176.687 249.474 174.238 240.233 177.657C230.991 181.077 229.35 189.071 236.566 195.511C243.783 201.952 257.126 204.401 266.367 200.981Z" fill="#FDC210"/>
<path fill-rule="evenodd" clip-rule="evenodd" d="M236.725 229.301C238.022 227.719 239.801 226.237 242.066 224.93C252.659 218.814 269.858 218.814 280.45 224.93C283.827 226.879 286.126 229.215 287.351 231.693L288.396 231.09V237.778C288.396 241.79 285.747 245.801 280.45 248.859C269.858 254.975 252.659 254.975 242.066 248.859C237.061 245.969 234.422 242.228 234.146 238.441C234.115 237.999 234.115 237.557 234.146 237.116V230.79L236.725 229.301Z" fill="#FDC210"/>
<path d="M280.45 242.431C291.05 236.312 291.049 226.39 280.45 220.27C269.85 214.15 252.665 214.15 242.065 220.27C231.466 226.389 231.466 236.311 242.066 242.431C252.665 248.551 269.851 248.551 280.45 242.431Z" fill="#FFDA1D"/>
<path d="M276.726 240.278C285.265 235.347 285.265 227.354 276.726 222.424C268.186 217.493 254.341 217.493 245.802 222.423C237.262 227.354 237.262 235.347 245.802 240.277C254.341 245.208 268.187 245.208 276.726 240.278Z" fill="#FCAA06"/>
<path d="M276.726 241.984C285.265 237.054 285.265 229.06 276.726 224.13C268.186 219.2 254.341 219.2 245.802 224.13C237.262 229.06 237.262 237.054 245.802 241.984C254.341 246.914 268.187 246.914 276.726 241.984Z" fill="#FDC210"/>
<path fill-rule="evenodd" clip-rule="evenodd" d="M194.46 253.702C195.756 252.12 197.536 250.639 199.8 249.331C210.394 243.216 227.593 243.216 238.185 249.331C241.561 251.28 243.861 253.617 245.085 256.094L246.131 255.491V262.18C246.131 266.191 243.482 270.203 238.185 273.26C227.593 279.376 210.394 279.376 199.8 273.26C194.795 270.371 192.157 266.63 191.881 262.842C191.849 262.401 191.849 261.958 191.881 261.517V255.191L194.46 253.702Z" fill="#FDC210"/>
<path d="M238.185 266.833C248.784 260.713 248.784 250.791 238.184 244.671C227.585 238.552 210.4 238.552 199.8 244.671C189.201 250.791 189.201 260.713 199.8 266.832C210.4 272.952 227.585 272.952 238.185 266.833Z" fill="#FFDA1D"/>
<path d="M234.461 264.679C243 259.749 243 251.755 234.46 246.825C225.921 241.895 212.076 241.895 203.536 246.825C194.997 251.755 194.997 259.749 203.536 264.679C212.076 269.609 225.921 269.609 234.461 264.679Z" fill="#FCAA06"/>
<path d="M234.461 266.386C243 261.455 243 253.462 234.46 248.532C225.921 243.601 212.076 243.601 203.536 248.531C194.997 253.462 194.997 261.455 203.536 266.385C212.076 271.316 225.921 271.316 234.461 266.386Z" fill="#FDC210"/>
<path fill-rule="evenodd" clip-rule="evenodd" d="M188.828 159.302C190.125 157.72 191.904 156.238 194.169 154.931C204.762 148.815 221.961 148.815 232.553 154.931C235.93 156.88 238.229 159.216 239.454 161.694L240.499 161.091V167.78C240.499 171.791 237.85 175.803 232.553 178.86C221.961 184.976 204.762 184.976 194.169 178.86C189.164 175.971 186.525 172.229 186.249 168.442C186.217 168 186.217 167.558 186.249 167.117V160.791L188.828 159.302Z" fill="#FDC210"/>
<path d="M232.553 172.432C243.153 166.313 243.152 156.391 232.553 150.271C221.953 144.151 204.768 144.151 194.168 150.271C183.569 156.391 183.569 166.312 194.169 172.432C204.768 178.552 221.954 178.552 232.553 172.432Z" fill="#FFDA1D"/>
<path d="M228.829 170.279C237.368 165.349 237.368 157.355 228.829 152.425C220.289 147.494 206.444 147.494 197.905 152.424C189.365 157.355 189.365 165.348 197.905 170.279C206.444 175.209 220.29 175.209 228.829 170.279Z" fill="#FCAA06"/>
<path d="M228.829 171.985C237.368 167.055 237.368 159.062 228.829 154.131C220.289 149.201 206.444 149.201 197.904 154.131C189.365 159.061 189.365 167.055 197.905 171.985C206.444 176.915 220.29 176.916 228.829 171.985Z" fill="#FDC210"/>
<path fill-rule="evenodd" clip-rule="evenodd" d="M202.85 130.997C204.264 129.602 206.104 128.364 208.359 127.355C218.906 122.636 234.556 124.707 243.285 131.978C246.068 134.295 247.814 136.863 248.56 139.439L249.601 138.974L248.607 145.531C248.012 149.464 245.005 153.077 239.732 155.437C229.186 160.157 213.536 158.085 204.805 150.814C200.68 147.378 198.834 143.393 199.146 139.647C199.182 139.21 199.248 138.776 199.342 138.348L200.282 132.146L202.85 130.997Z" fill="#FDC210"/>
<path d="M240.695 149.142C251.249 144.419 252.722 134.692 243.986 127.416C235.25 120.14 219.613 118.071 209.059 122.793C198.506 127.516 197.032 137.243 205.768 144.519C214.504 151.795 230.141 153.865 240.695 149.142Z" fill="#FFDA1D"/>
<path d="M237.617 146.593C246.12 142.788 247.307 134.952 240.269 129.09C233.23 123.228 220.632 121.561 212.13 125.365C203.627 129.17 202.44 137.007 209.478 142.869C216.517 148.731 229.115 150.398 237.617 146.593Z" fill="#FCAA06"/>
<path d="M237.348 148.271C245.85 144.466 247.038 136.63 239.999 130.768C232.961 124.906 220.363 123.239 211.861 127.044C203.358 130.848 202.171 138.685 209.209 144.547C216.247 150.409 228.846 152.076 237.348 148.271Z" fill="#FDC210"/>
<path fill-rule="evenodd" clip-rule="evenodd" d="M201.714 223.61C203.01 222.028 204.79 220.547 207.054 219.239C217.648 213.124 234.847 213.124 245.439 219.239C248.815 221.188 251.115 223.525 252.339 226.002L253.385 225.4V232.088C253.385 236.099 250.735 240.111 245.439 243.168C234.847 249.284 217.648 249.284 207.054 243.168C202.049 240.279 199.41 236.538 199.135 232.75C199.103 232.309 199.103 231.866 199.135 231.425V225.099L201.714 223.61Z" fill="#FDC210"/>
<path d="M245.439 236.741C256.038 230.621 256.038 220.699 245.438 214.579C234.839 208.46 217.653 208.46 207.054 214.579C196.454 220.699 196.455 230.621 207.054 236.74C217.654 242.86 234.839 242.86 245.439 236.741Z" fill="#FFDA1D"/>
<path d="M241.714 234.587C250.254 229.657 250.254 221.663 241.714 216.733C233.175 211.803 219.329 211.803 210.79 216.733C202.251 221.663 202.251 229.656 210.79 234.587C219.33 239.517 233.175 239.517 241.714 234.587Z" fill="#FCAA06"/>
<path d="M241.714 236.294C250.254 231.363 250.254 223.37 241.714 218.439C233.175 213.509 219.329 213.509 210.79 218.439C202.251 223.369 202.251 231.363 210.79 236.293C219.33 241.224 233.175 241.224 241.714 236.294Z" fill="#FDC210"/>
<path fill-rule="evenodd" clip-rule="evenodd" d="M151.772 169.867C153.284 168.503 155.214 167.298 157.549 166.327C168.471 161.781 184.118 164.031 192.471 171.348C195.133 173.679 196.735 176.246 197.329 178.809L198.406 178.361L197.002 184.848C196.16 188.738 192.907 192.282 187.446 194.554C176.526 199.1 160.878 196.85 152.525 189.534C148.578 186.077 146.962 182.103 147.507 178.394C147.571 177.962 147.664 177.533 147.785 177.109L149.113 170.974L151.772 169.867Z" fill="#FDC210"/>
<path d="M188.798 188.333C199.726 183.784 201.81 174.162 193.451 166.84C185.092 159.519 169.457 157.271 158.529 161.819C147.601 166.368 145.518 175.99 153.876 183.311C162.235 190.633 177.87 192.881 188.798 188.333Z" fill="#FFDA1D"/>
<path d="M185.852 185.721C194.656 182.057 196.335 174.304 189.601 168.406C182.866 162.507 170.27 160.696 161.466 164.361C152.662 168.025 150.983 175.777 157.717 181.676C164.451 187.574 177.048 189.385 185.852 185.721Z" fill="#FCAA06"/>
<path d="M185.497 187.399C194.301 183.735 195.979 175.982 189.245 170.084C182.511 164.185 169.915 162.374 161.11 166.039C152.306 169.703 150.628 177.455 157.362 183.354C164.096 189.252 176.692 191.063 185.497 187.399Z" fill="#FDC210"/>
<path fill-rule="evenodd" clip-rule="evenodd" d="M254.517 204.411C255.813 202.83 257.593 201.348 259.858 200.041C270.451 193.925 287.65 193.925 298.242 200.041C301.619 201.99 303.918 204.326 305.143 206.804L306.188 206.201V212.889C306.188 216.901 303.539 220.912 298.242 223.97C287.65 230.085 270.451 230.085 259.858 223.97C254.852 221.08 252.214 217.339 251.938 213.552C251.906 213.11 251.906 212.668 251.938 212.227V205.9L254.517 204.411Z" fill="#FDC210"/>
<path d="M298.242 217.542C308.841 211.422 308.841 201.501 298.242 195.381C287.642 189.261 270.457 189.261 259.857 195.381C249.258 201.5 249.258 211.422 259.858 217.542C270.457 223.661 287.642 223.662 298.242 217.542Z" fill="#FFDA1D"/>
<path d="M294.518 215.388C303.057 210.458 303.057 202.465 294.518 197.534C285.978 192.604 272.133 192.604 263.593 197.534C255.054 202.464 255.054 210.458 263.594 215.388C272.133 220.319 285.978 220.319 294.518 215.388Z" fill="#FCAA06"/>
<path d="M294.518 217.095C303.057 212.165 303.057 204.171 294.518 199.241C285.978 194.311 272.133 194.311 263.593 199.241C255.054 204.171 255.054 212.164 263.594 217.095C272.133 222.025 285.978 222.025 294.518 217.095Z" fill="#FDC210"/>
<path fill-rule="evenodd" clip-rule="evenodd" d="M264.041 182.058C265.013 180.254 266.482 178.447 268.463 176.708C277.734 168.578 294.725 165.024 306.383 168.776C310.099 169.971 312.827 171.766 314.521 173.919L315.435 173.118L316.742 179.615C317.525 183.512 315.692 187.956 311.056 192.021C301.787 200.151 284.797 203.705 273.137 199.954C267.628 198.181 264.291 195.092 263.279 191.47C263.161 191.048 263.075 190.618 263.02 190.183L261.784 184.038L264.041 182.058Z" fill="#FDC210"/>
<path d="M309.791 185.786C319.067 177.651 317.129 168.013 305.462 164.258C293.796 160.504 276.819 164.056 267.543 172.191C258.267 180.326 260.205 189.965 271.872 193.719C283.538 197.473 300.515 193.921 309.791 185.786Z" fill="#FFDA1D"/>
<path d="M305.695 184.473C313.168 177.919 311.607 170.154 302.208 167.129C292.809 164.105 279.132 166.966 271.659 173.52C264.186 180.074 265.747 187.839 275.146 190.864C284.545 193.888 298.222 191.027 305.695 184.473Z" fill="#FCAA06"/>
<path d="M306.036 186.151C313.509 179.597 311.947 171.832 302.548 168.807C293.149 165.783 279.472 168.644 271.999 175.198C264.526 181.752 266.087 189.517 275.486 192.542C284.885 195.566 298.563 192.705 306.036 186.151Z" fill="#FDC210"/>
<path fill-rule="evenodd" clip-rule="evenodd" d="M234.361 143.807C235.996 142.659 238.04 141.736 240.472 141.11C251.851 138.181 267.439 142.831 275.262 151.488C277.755 154.247 279.161 157.082 279.55 159.76L280.673 159.471L278.729 165.807C277.563 169.607 273.996 172.691 268.307 174.155C256.929 177.085 241.341 172.435 233.517 163.777C229.821 159.687 228.517 155.43 229.367 151.768C229.467 151.341 229.596 150.922 229.752 150.513L231.591 144.52L234.361 143.807Z" fill="#FDC210"/>
<path d="M270.173 168.076C281.558 165.145 284.442 155.746 276.614 147.083C268.786 138.421 253.21 133.774 241.825 136.705C230.439 139.637 227.556 149.035 235.384 157.698C243.212 166.361 258.788 171.007 270.173 168.076Z" fill="#FFDA1D"/>
<path d="M267.426 165.003C276.599 162.642 278.922 155.07 272.615 148.091C266.308 141.112 253.76 137.369 244.587 139.73C235.415 142.092 233.091 149.664 239.398 156.643C245.705 163.622 258.253 167.365 267.426 165.003Z" fill="#FCAA06"/>
<path d="M266.928 166.653C276.101 164.292 278.424 156.72 272.117 149.741C265.811 142.761 253.262 139.018 244.09 141.38C234.917 143.741 232.594 151.313 238.9 158.292C245.207 165.271 257.756 169.015 266.928 166.653Z" fill="#FDC210"/>
<path fill-rule="evenodd" clip-rule="evenodd" d="M195.471 160.942C197.068 159.72 199.045 158.724 201.383 158.029C212.318 154.776 226.996 159.312 234.142 168.153C236.42 170.97 237.659 173.887 237.937 176.659L239.016 176.339L236.945 182.952C235.702 186.918 232.199 190.185 226.732 191.811C215.799 195.064 201.12 190.528 193.973 181.688C190.596 177.511 189.503 173.116 190.44 169.298C190.55 168.853 190.687 168.416 190.85 167.989L192.809 161.734L195.471 160.942Z" fill="#FDC210"/>
<path d="M228.706 185.449C239.647 182.195 242.719 172.385 235.568 163.538C228.417 154.692 213.75 150.16 202.809 153.414C191.868 156.669 188.795 166.479 195.947 175.325C203.098 184.172 217.765 188.704 228.706 185.449Z" fill="#FFDA1D"/>
<path d="M226.192 182.357C235.007 179.735 237.482 171.832 231.721 164.705C225.959 157.578 214.143 153.926 205.329 156.549C196.514 159.171 194.039 167.074 199.8 174.201C205.561 181.328 217.378 184.98 226.192 182.357Z" fill="#FCAA06"/>
<path d="M225.666 184.064C234.481 181.442 236.956 173.538 231.195 166.411C225.433 159.285 213.617 155.633 204.802 158.255C195.988 160.877 193.513 168.781 199.274 175.908C205.035 183.035 216.851 186.686 225.666 184.064Z" fill="#FDC210"/>
<path fill-rule="evenodd" clip-rule="evenodd" d="M216.645 198.695C217.941 197.113 219.721 195.631 221.985 194.324C232.579 188.208 249.778 188.208 260.37 194.324C263.746 196.273 266.046 198.609 267.271 201.087L268.316 200.484V207.172C268.316 211.184 265.667 215.195 260.37 218.253C249.778 224.369 232.579 224.369 221.985 218.253C216.98 215.363 214.342 211.622 214.066 207.835C214.034 207.393 214.034 206.951 214.066 206.51V200.184L216.645 198.695Z" fill="#FDC210"/>
<path d="M260.37 211.825C270.969 205.706 270.969 195.784 260.37 189.664C249.77 183.544 232.585 183.544 221.985 189.664C211.386 195.783 211.386 205.705 221.985 211.825C232.585 217.945 249.77 217.945 260.37 211.825Z" fill="#FFDA1D"/>
<path d="M256.646 209.672C265.185 204.741 265.185 196.748 256.645 191.817C248.106 186.887 234.261 186.887 225.721 191.817C217.182 196.747 217.182 204.741 225.721 209.671C234.261 214.602 248.106 214.602 256.646 209.672Z" fill="#FCAA06"/>
<path d="M256.646 211.378C265.185 206.448 265.185 198.454 256.645 193.524C248.106 188.594 234.261 188.594 225.721 193.524C217.182 198.454 217.182 206.448 225.721 211.378C234.261 216.308 248.106 216.308 256.646 211.378Z" fill="#FDC210"/>
<path fill-rule="evenodd" clip-rule="evenodd" d="M240.323 125.368C241.62 123.842 243.399 122.436 245.664 121.226C256.257 115.564 273.456 116.3 284.048 122.869C287.425 124.963 289.724 127.398 290.949 129.928L291.994 129.37V136.058C291.994 140.069 289.345 143.968 284.048 146.798C273.456 152.46 256.257 151.724 245.664 145.155C240.659 142.051 238.02 138.197 237.744 134.397C237.712 133.954 237.712 133.512 237.744 133.073V126.746L240.323 125.368Z" fill="#FDC210"/>
<path d="M284.048 140.369C294.648 134.703 294.647 124.781 284.048 118.208C273.448 111.634 256.263 110.898 245.663 116.564C235.064 122.229 235.064 132.151 245.664 138.725C256.263 145.299 273.449 146.035 284.048 140.369Z" fill="#FFDA1D"/>
<path d="M280.324 138.049C288.863 133.484 288.863 125.491 280.324 120.195C271.784 114.899 257.939 114.306 249.4 118.87C240.86 123.435 240.86 131.429 249.4 136.725C257.939 142.021 271.784 142.613 280.324 138.049Z" fill="#FCAA06"/>
<path d="M280.324 139.784C288.863 135.219 288.863 127.226 280.324 121.93C271.784 116.634 257.939 116.041 249.4 120.605C240.86 125.17 240.86 133.163 249.4 138.459C257.939 143.755 271.785 144.348 280.324 139.784Z" fill="#FDC210"/>
<path fill-rule="evenodd" clip-rule="evenodd" d="M287.974 155.641C289.437 154.243 291.373 153.003 293.775 151.996C305.012 147.286 322.211 149.438 332.159 156.798C335.331 159.144 337.384 161.737 338.348 164.335L339.457 163.871L338.753 170.471C338.331 174.43 335.26 178.057 329.641 180.412C318.406 185.122 301.207 182.971 291.257 175.61C286.556 172.133 284.311 168.11 284.433 164.339C284.448 163.899 284.495 163.462 284.573 163.031L285.239 156.788L287.974 155.641Z" fill="#FDC210"/>
<path d="M330.31 174.085C341.553 169.372 342.597 159.581 332.641 152.216C322.686 144.851 305.501 142.701 294.257 147.414C283.014 152.127 281.97 161.918 291.925 169.283C301.881 176.648 319.066 178.798 330.31 174.085Z" fill="#FFDA1D"/>
<path d="M326.799 171.497C335.857 167.7 336.698 159.811 328.678 153.877C320.657 147.944 306.812 146.212 297.754 150.009C288.695 153.806 287.854 161.694 295.875 167.628C303.896 173.561 317.741 175.294 326.799 171.497Z" fill="#FCAA06"/>
<path d="M326.627 173.177C335.686 169.38 336.527 161.491 328.506 155.558C320.485 149.624 306.64 147.892 297.582 151.689C288.524 155.486 287.682 163.374 295.703 169.308C303.724 175.242 317.569 176.974 326.627 173.177Z" fill="#FDC210"/>
<path fill-rule="evenodd" clip-rule="evenodd" d="M343.389 152.876L208.353 230.839L170.96 166.071L305.996 88.1075L343.389 152.876Z" fill="#C6FBFF" fill-opacity="0.6"/>
<path fill-rule="evenodd" clip-rule="evenodd" d="M274.781 192.489L257.335 202.561L240.385 125.99L257.831 115.918L274.781 192.489Z" fill="white" fill-opacity="0.6"/>
<path fill-rule="evenodd" clip-rule="evenodd" d="M252.18 205.538L243.64 210.468L226.689 133.898L235.23 128.967L252.18 205.538Z" fill="white" fill-opacity="0.6"/>
<path fill-rule="evenodd" clip-rule="evenodd" d="M343.389 152.876L208.353 230.839L170.96 166.071L305.996 88.1075L343.389 152.876Z" stroke="#C9FEB8" stroke-width="0.00106206" stroke-miterlimit="1.5" stroke-linejoin="round"/>
<path fill-rule="evenodd" clip-rule="evenodd" d="M343.391 152.876L208.355 230.839V291.903L343.391 213.939V152.876ZM303.336 184.909L254.774 212.946V256.195L303.336 228.158V184.909Z" fill="#C6FBFF" fill-opacity="0.6" stroke="#C9FEB8" stroke-width="0.00126247" stroke-miterlimit="1.5" stroke-linejoin="round"/>
<path d="M253.126 57.5976L118.09 135.561L170.973 166.093L306.009 88.1297L253.126 57.5976Z" fill="#C6FBFF" fill-opacity="0.6"/>
<path d="M235.06 68.0018L217.614 78.0743L240.372 125.999L257.818 115.926L235.06 68.0018Z" fill="white" fill-opacity="0.6"/>
<path d="M212.46 81.0764L203.919 86.0075L226.677 133.932L235.218 129.001L212.46 81.0764Z" fill="white" fill-opacity="0.6"/>
<path d="M253.126 57.5976L118.09 135.561L170.973 166.093L306.009 88.1297L253.126 57.5976Z" stroke="#C9FEB8" stroke-width="0.00106206" stroke-miterlimit="1.5" stroke-linejoin="round"/>
<path fill-rule="evenodd" clip-rule="evenodd" d="M175.574 160.204L215.737 229.767L215.736 295.35L175.575 318.537L118.777 285.745L78.6159 216.183L78.6163 150.6L118.777 127.412L175.574 160.204Z" fill="#79FF4A"/>
<path d="M118.782 127.412L103.985 135.955L160.783 168.747L175.579 160.204L118.782 127.412Z" fill="#79FF4A"/>
<path fill-rule="evenodd" clip-rule="evenodd" d="M215.743 229.761L200.947 238.304L160.785 168.742L175.582 160.199L215.743 229.761Z" fill="#79FF4A"/>
<path fill-rule="evenodd" clip-rule="evenodd" d="M215.74 229.778L200.943 238.321L200.943 303.905L215.74 295.362L215.74 229.778Z" fill="#43D012"/>
<path fill-rule="evenodd" clip-rule="evenodd" d="M160.784 168.763L200.947 238.326L200.946 303.909L160.785 327.097L103.987 294.304L63.8259 224.742L63.8262 159.159L103.987 135.971L160.784 168.763Z" fill="#49E513"/>
<path fill-rule="evenodd" clip-rule="evenodd" d="M146.021 294.872C146.82 297.6 146.59 300.045 145.407 301.393C144.223 302.741 142.242 302.815 140.123 301.591C134.843 298.543 128.286 294.757 123.006 291.708C120.885 290.484 118.905 288.123 117.722 285.41C116.539 282.694 116.308 279.984 117.107 278.179C122.362 266.304 131.564 245.508 131.564 245.508C131.564 245.508 140.767 276.93 146.021 294.872ZM176.16 284.071C178.125 286.145 179.554 288.981 179.969 291.63C180.384 294.278 179.73 296.388 178.226 297.256C174.2 299.582 169.1 302.525 165.066 304.856C163.557 305.727 161.392 305.231 159.302 303.535C157.21 301.84 155.47 299.169 154.665 296.422C149.288 278.061 139.809 245.698 139.809 245.698C139.809 245.698 163.021 270.201 176.16 284.071ZM108.75 269.1C107.945 270.918 106.205 271.579 104.113 270.859C102.022 270.139 99.858 268.136 98.3493 265.523C94.5093 258.873 89.7244 250.585 85.8934 243.948C84.3894 241.343 83.7355 238.478 84.1509 236.309C84.5651 234.139 85.9939 232.953 87.959 233.148C100.79 234.42 123.117 236.632 123.117 236.632C123.117 236.632 114.002 257.233 108.75 269.1ZM188.459 274.64C188.459 277.095 187.397 278.776 185.629 279.119C183.861 279.463 181.618 278.423 179.655 276.35C166.691 262.665 143.988 238.699 143.988 238.699C143.988 238.699 166.691 240.948 179.655 242.231C181.618 242.426 183.861 243.976 185.629 246.36C187.397 248.745 188.459 251.652 188.459 254.109C188.459 260.423 188.459 268.325 188.459 274.64ZM120.132 224.925C120.132 224.925 97.4284 222.676 84.4647 221.392C82.5007 221.197 80.2595 219.649 78.4906 217.263C76.7218 214.878 75.6605 211.971 75.6605 209.516C75.6605 203.201 75.6605 195.299 75.6605 188.984C75.6605 186.528 76.7218 184.847 78.4906 184.504C80.2595 184.162 82.5007 185.2 84.4647 187.273C97.4284 200.959 120.132 224.925 120.132 224.925ZM178.226 219.675C179.73 222.28 180.384 225.147 179.969 227.316C179.554 229.484 178.125 230.67 176.16 230.475C163.021 229.174 139.809 226.875 139.809 226.875C139.809 226.875 149.288 205.457 154.665 193.303C155.47 191.485 157.21 190.826 159.302 191.545C161.392 192.264 163.557 194.268 165.066 196.881C169.1 203.868 174.2 212.701 178.226 219.675ZM123.117 216.667C123.117 216.667 100.79 193.098 87.959 179.552C85.9939 177.478 84.5651 174.642 84.1509 171.995C83.7355 169.347 84.3894 167.235 85.8934 166.367C89.7244 164.153 94.5093 161.392 98.3493 159.175C99.858 158.304 102.022 158.8 104.113 160.495C106.205 162.191 107.945 164.862 108.75 167.607C114.002 185.54 123.117 216.667 123.117 216.667ZM131.564 217.543C131.564 217.543 122.362 186.121 117.107 168.18C116.308 165.451 116.539 163.006 117.722 161.659C118.905 160.312 120.885 160.236 123.006 161.46L140.123 171.343C142.242 172.566 144.223 174.929 145.407 177.643C146.59 180.357 146.82 183.067 146.021 184.873C140.767 196.747 131.564 217.543 131.564 217.543Z" fill="white"/>
<path fill-rule="evenodd" clip-rule="evenodd" d="M303.338 228.153L316.905 214.487L303.338 184.904V228.153Z" fill="#43E50A"/>
<path fill-rule="evenodd" clip-rule="evenodd" d="M303.334 184.911L254.773 212.948L268.34 242.53L316.902 214.493L303.334 184.911Z" fill="#79FF4A"/>
<path fill-rule="evenodd" clip-rule="evenodd" d="M254.773 256.197L268.34 242.531L254.773 212.948V256.197Z" fill="#43E50A"/>
<path d="M129.019 250.291C138.422 255.72 146.045 251.319 146.045 240.462C146.045 229.605 138.422 216.402 129.019 210.973C119.615 205.544 111.992 209.944 111.992 220.801C111.992 231.659 119.615 244.862 129.019 250.291Z" fill="#F9A825"/>
<path fill-rule="evenodd" clip-rule="evenodd" d="M116.024 210.357C119.147 207.951 123.784 207.958 128.957 210.945C136.119 215.08 142.253 223.738 144.767 232.427L145.029 233.386C145.029 233.386 179.769 360.273 191.284 402.334C191.894 404.562 191.098 406.937 189.27 408.348C189.083 408.492 188.889 408.624 188.689 408.741V408.766L176.171 415.993V404.861L69.1973 343.1C65.6242 341.037 64.1097 336.662 65.6432 332.832L107.486 228.314L104.829 229.848V216.821L116.024 210.357Z" fill="#FFDA1D"/>
<path fill-rule="evenodd" clip-rule="evenodd" d="M56.9101 350.181C53.3361 348.119 51.8227 343.744 53.3563 339.914C63.7061 314.058 100.595 221.913 100.595 221.913H100.597C102.92 215.592 109.243 213.74 116.669 218.028C123.83 222.162 129.965 230.82 132.478 239.508L132.743 240.468C132.743 240.468 167.481 367.354 178.997 409.417C179.606 411.644 178.81 414.019 176.982 415.43C175.154 416.841 172.655 417.007 170.655 415.853C143.37 400.101 77.4599 362.046 56.9101 350.181Z" fill="#FFB314"/>
<path d="M116.674 249.775C122.426 253.095 127.088 250.404 127.088 243.764C127.088 237.123 122.426 229.048 116.674 225.728C110.923 222.407 106.261 225.098 106.261 231.739C106.261 238.379 110.923 246.454 116.674 249.775Z" fill="#F0F2DF"/>
<path d="M119.576 248.097C125.327 251.417 129.989 248.726 129.989 242.085C129.989 235.445 125.327 227.37 119.576 224.049C113.824 220.729 109.162 223.42 109.162 230.061C109.162 236.701 113.824 244.776 119.576 248.097Z" fill="white"/>
<path fill-rule="evenodd" clip-rule="evenodd" d="M284.423 353.279C285.719 351.697 287.499 350.215 289.764 348.908C300.357 342.792 317.556 342.792 328.148 348.908C331.525 350.857 333.824 353.193 335.049 355.671L336.094 355.068V361.757C336.094 365.768 333.445 369.78 328.148 372.837C317.556 378.953 300.357 378.953 289.764 372.837C284.759 369.948 282.12 366.206 281.844 362.419C281.812 361.977 281.812 361.535 281.844 361.094V354.768L284.423 353.279Z" fill="#FDC210"/>
<path d="M328.148 366.409C338.747 360.29 338.747 350.368 328.148 344.248C317.548 338.128 300.363 338.128 289.763 344.248C279.164 350.368 279.164 360.289 289.764 366.409C300.363 372.529 317.549 372.529 328.148 366.409Z" fill="#FFDA1D"/>
<path d="M324.424 364.256C332.963 359.326 332.963 351.332 324.424 346.402C315.884 341.471 302.039 341.471 293.499 346.402C284.96 351.332 284.96 359.325 293.5 364.256C302.039 369.186 315.884 369.186 324.424 364.256Z" fill="#FCAA06"/>
<path d="M324.424 365.962C332.963 361.032 332.963 353.039 324.424 348.108C315.884 343.178 302.039 343.178 293.499 348.108C284.96 353.038 284.96 361.032 293.5 365.962C302.039 370.892 315.884 370.892 324.424 365.962Z" fill="#FDC210"/>
<path fill-rule="evenodd" clip-rule="evenodd" d="M271.44 345.798C272.737 344.217 274.516 342.735 276.781 341.428C287.374 335.312 304.573 335.312 315.165 341.428C318.542 343.377 320.841 345.713 322.066 348.191L323.111 347.588V354.276C323.111 358.288 320.462 362.299 315.165 365.357C304.573 371.472 287.374 371.472 276.781 365.357C271.776 362.467 269.137 358.726 268.861 354.939C268.829 354.497 268.829 354.055 268.861 353.614V347.287L271.44 345.798Z" fill="#FDC210"/>
<path d="M315.165 358.929C325.765 352.809 325.764 342.887 315.165 336.768C304.565 330.648 287.38 330.648 276.78 336.768C266.181 342.887 266.181 352.809 276.781 358.929C287.38 365.049 304.566 365.049 315.165 358.929Z" fill="#FFDA1D"/>
<path d="M311.441 356.775C319.98 351.845 319.98 343.852 311.441 338.921C302.901 333.991 289.056 333.991 280.516 338.921C271.977 343.851 271.977 351.845 280.517 356.775C289.056 361.706 302.901 361.706 311.441 356.775Z" fill="#FCAA06"/>
<path d="M311.441 358.482C319.98 353.552 319.98 345.558 311.441 340.628C302.901 335.698 289.056 335.697 280.516 340.628C271.977 345.558 271.977 353.552 280.517 358.482C289.056 363.412 302.902 363.412 311.441 358.482Z" fill="#FDC210"/>
<path fill-rule="evenodd" clip-rule="evenodd" d="M282.504 395.461C283.801 393.88 285.58 392.398 287.845 391.09C298.438 384.975 315.637 384.975 326.229 391.09C329.606 393.039 331.905 395.376 333.13 397.854L334.175 397.251V403.939C334.175 407.95 331.526 411.962 326.229 415.02C315.637 421.135 298.438 421.135 287.845 415.02C282.84 412.13 280.201 408.389 279.925 404.601C279.894 404.16 279.894 403.718 279.925 403.277V396.95L282.504 395.461Z" fill="#FDC210"/>
<path d="M326.229 408.592C336.829 402.472 336.829 392.55 326.229 386.43C315.629 380.311 298.444 380.311 287.845 386.43C277.245 392.55 277.245 402.472 287.845 408.591C298.444 414.711 315.63 414.711 326.229 408.592Z" fill="#FFDA1D"/>
<path d="M322.505 406.438C331.044 401.508 331.044 393.514 322.505 388.584C313.965 383.654 300.12 383.654 291.581 388.584C283.041 393.514 283.041 401.508 291.581 406.438C300.12 411.368 313.966 411.368 322.505 406.438Z" fill="#FCAA06"/>
<path d="M322.505 408.145C331.044 403.214 331.044 395.221 322.505 390.29C313.965 385.36 300.12 385.36 291.581 390.29C283.041 395.221 283.041 403.214 291.581 408.144C300.12 413.075 313.966 413.075 322.505 408.145Z" fill="#FDC210"/>
<path fill-rule="evenodd" clip-rule="evenodd" d="M326.251 357.592C327.825 356.305 329.836 355.228 332.272 354.435C343.664 350.727 360.021 354.636 368.776 363.159C371.567 365.875 373.251 368.734 373.881 371.49L375.005 371.125L373.564 377.813C372.7 381.825 369.316 385.234 363.619 387.088C352.229 390.796 335.872 386.887 327.115 378.364C322.978 374.337 321.275 369.996 321.828 366.146C321.893 365.697 321.989 365.255 322.114 364.821L323.477 358.495L326.251 357.592Z" fill="#FDC210"/>
<path d="M365.004 380.657C376.403 376.946 378.541 367.025 369.78 358.496C361.018 349.967 344.674 346.061 333.275 349.772C321.876 353.482 319.738 363.404 328.5 371.933C337.262 380.462 353.605 384.368 365.004 380.657Z" fill="#FFDA1D"/>
<path d="M361.922 377.667C371.106 374.677 372.829 366.684 365.77 359.813C358.711 352.941 345.544 349.795 336.36 352.784C327.176 355.773 325.454 363.767 332.513 370.638C339.572 377.509 352.739 380.656 361.922 377.667Z" fill="#FCAA06"/>
<path d="M361.553 379.375C370.736 376.386 372.459 368.392 365.4 361.521C358.341 354.65 345.174 351.503 335.99 354.493C326.807 357.482 325.084 365.476 332.143 372.347C339.202 379.218 352.369 382.365 361.553 379.375Z" fill="#FDC210"/>
<path fill-rule="evenodd" className="floating-star" clip-rule="evenodd" d="M247.471 382.295H247.449H247.46H247.449H247.471C255.75 382.306 262.467 389.031 262.467 397.313C262.467 389.031 269.184 382.306 277.463 382.295H277.485H277.474H277.485H277.463C269.184 382.282 262.467 375.557 262.467 367.276C262.467 375.557 255.75 382.282 247.471 382.295Z" fill="#FFDA1D"/>
<path fill-rule="evenodd" className="floating-star" clip-rule="evenodd" d="M321.548 330.018H321.526H321.537H321.526H321.548C329.827 330.029 336.544 336.754 336.544 345.036C336.544 336.754 343.261 330.029 351.54 330.018H351.562H351.551H351.562H351.54C343.261 330.005 336.544 323.28 336.544 314.999C336.544 323.28 329.827 330.005 321.548 330.018Z" fill="#FFDA1D"/>
<path fill-rule="evenodd" className="floating-star" clip-rule="evenodd" d="M296.975 314.173H296.953H296.964H296.953H296.975C305.254 314.185 311.971 320.909 311.971 329.191C311.971 320.909 318.688 314.185 326.967 314.173H326.989H326.978H326.989H326.967C318.688 314.161 311.971 307.436 311.971 299.155C311.971 307.436 305.254 314.161 296.975 314.173Z" fill="#FFDA1D"/>
</g>
<defs>
</defs>
</svg>
