<svg  version="1.1"   width="91" height="69" viewBox="0 0 91 69" fill="none" xmlns="http://www.w3.org/2000/svg">
<path d="M51 0.152649H0L90 68.6526V31.6526L51 0.152649Z" fill="#03EA36"/>
<path d="M33.2941 12.3803L35.1825 13.8905L40.7007 6.99076L43.1459 8.94635L44.4819 7.27588L37.7032 1.85447L36.3672 3.52493L38.8124 5.48051L33.2941 12.3803ZM40.8428 18.4175L42.5133 19.7535L44.9045 16.7636C46.4728 14.8026 46.7655 13.2703 44.6472 11.5761C43.6909 10.8113 42.4708 10.3515 41.3016 10.4485L41.4762 12.2156C42.212 12.0896 42.9213 12.2202 43.5145 12.6946C44.1439 13.198 44.3474 14.0355 43.8343 14.6771C42.3212 13.467 39.8227 11.5283 38.1963 13.5619C37.2476 14.7482 37.7367 16.1715 38.8383 17.0525C39.5767 17.643 40.5063 17.9697 41.4091 17.6597L41.4333 17.6791L40.8428 18.4175ZM42.9049 15.8392L42.5951 16.2265C42.0142 16.9528 41.0483 16.7956 40.3341 16.2244C39.9347 15.9049 39.6393 15.3313 39.9878 14.8955C40.6268 14.0966 41.9002 15.0356 42.457 15.481L42.9049 15.8392ZM42.914 20.074L45.0324 21.7682L47.9807 20.9109L47.6954 23.898L49.838 25.6116L50.0915 20.654L54.192 19.4479L52.1705 17.8312L49.8879 18.6255L50.1248 16.1951L47.9822 14.4815L47.7553 18.7855L42.914 20.074ZM54.5899 29.412L56.4056 30.8642L59.9489 26.4338L61.2925 27.5084L62.4543 26.0559L61.1106 24.9813L61.8561 24.0492C62.4757 23.2745 62.9114 23.3253 63.4924 23.7899C63.7103 23.9642 63.841 24.1482 63.9887 24.3854L65.303 22.9158C65.0318 22.56 64.688 22.2454 64.3249 21.9549C62.3518 20.3769 61.1537 21.205 60.1275 22.4881L59.2949 23.5291L58.0965 22.5707L56.9348 24.0232L58.1332 24.9817L54.5899 29.412ZM58.4406 32.4918L60.2564 33.9439L62.2216 31.4866C63.1607 30.3125 63.9691 29.6491 65.3491 30.7527C65.6154 30.9657 65.8308 31.2174 66.0269 31.4934L67.3533 29.835C67.2225 29.6511 67.0022 29.455 66.7964 29.2904C65.9975 28.6515 65.189 28.6201 64.2305 29.0245L64.2062 29.0052L64.9614 28.061L63.1456 26.6088L58.4406 32.4918ZM69.0131 37.7519C68.3813 37.9214 67.7399 37.9046 67.1467 37.4302C66.4446 36.8687 66.2823 36.0045 66.6889 35.1984L70.9014 38.5674L71.3564 37.9985C72.857 36.1222 72.7598 34.0598 71.0652 32.7045C69.2494 31.2523 66.8288 31.301 65.3282 33.1773C63.8276 35.0535 64.3121 37.4258 66.1278 38.8779C67.072 39.633 68.3671 39.9742 69.5387 39.7005L69.0131 37.7519ZM67.6764 33.9637C68.1798 33.4335 69.0512 33.2373 69.8501 33.8762C70.5038 34.399 70.5693 35.285 70.0731 35.8806L67.6764 33.9637ZM75.9639 43.311C75.3321 43.4805 74.6907 43.4636 74.0975 42.9893C73.3954 42.4278 73.2331 41.5636 73.6397 40.7575L77.8522 44.1265L78.3072 43.5575C79.8078 41.6813 79.7106 39.6189 78.016 38.2635C76.2003 36.8114 73.7796 36.8601 72.279 38.7364C70.7784 40.6126 71.2629 42.9848 73.0786 44.437C74.0228 45.1921 75.3179 45.5332 76.4895 45.2595L75.9639 43.311ZM74.6272 39.5228C75.1306 38.9926 76.002 38.7964 76.8009 39.4353C77.4546 39.9581 77.5201 40.8441 77.0239 41.4396L74.6272 39.5228ZM86.8667 41.1741L85.0509 39.7219L80.4621 45.4596L82.2778 46.9118L86.8667 41.1741ZM78.8235 47.0865C78.3298 47.7039 78.4291 48.5971 79.0465 49.0908C79.6638 49.5846 80.5571 49.4852 81.0508 48.8679C81.5445 48.2505 81.4452 47.3573 80.8278 46.8636C80.2105 46.3698 79.3172 46.4692 78.8235 47.0865Z" fill="white"/>
</svg>
