<svg  viewBox="0 0 398 191" fill="none" xmlns="http://www.w3.org/2000/svg">
<g clip-path="url(#clip0)">
<path d="M1.39349 143.533L1.3732 149.044C20.0334 149.098 35.121 164.319 35.0669 183.049L362.809 183.968C362.856 165.234 378.03 150.099 396.686 150.145L396.706 144.637C393.675 144.631 391.217 142.156 391.23 139.113C391.24 136.07 393.7 133.608 396.739 133.618L396.749 129.161C393.718 129.155 391.264 126.684 391.27 123.641C391.283 120.598 393.751 118.135 396.782 118.145L396.796 113.688C393.757 113.678 391.307 111.211 391.316 108.164C391.322 105.121 393.79 102.663 396.825 102.672L396.839 98.2154C393.8 98.2056 391.35 95.7343 391.359 92.6913C391.369 89.6445 393.833 87.19 396.864 87.1998L396.882 82.7428C393.847 82.733 391.396 80.2617 391.402 77.2148C391.412 74.1718 393.876 71.7134 396.911 71.7193L396.921 67.2662C393.89 67.2603 391.439 64.7851 391.449 61.7421C391.455 58.6991 393.923 56.2369 396.954 56.2467L396.964 51.7935C393.933 51.7876 391.482 49.3124 391.492 46.2695C391.502 43.2265 393.966 40.7642 396.997 40.774L397.01 37.1646C378.35 37.1148 363.258 21.8902 363.313 3.15974L35.578 2.24448C35.5239 20.975 20.3497 36.1175 1.6935 36.06L1.68032 39.6732C4.71159 39.6791 7.16603 42.1504 7.16007 45.1934C7.15021 48.2364 4.68667 50.6948 1.6515 50.6889L1.64123 55.1459C4.6725 55.1518 7.12301 57.627 7.11706 60.67C7.10719 63.713 4.63977 66.1674 1.6085 66.1615L1.59824 70.6186C4.62951 70.6245 7.08004 73.0958 7.07016 76.1427C7.0642 79.1856 4.59676 81.644 1.56551 81.6342L1.55134 86.0912C4.58649 86.101 7.03702 88.5724 7.02716 91.6153C7.01728 94.6622 4.55374 97.1206 1.51859 97.1108L1.50835 101.564C4.53959 101.574 6.99012 104.045 6.98415 107.092C6.97428 110.135 4.50684 112.593 1.4756 112.583L1.46536 117.037C4.49658 117.05 6.95102 119.522 6.93725 122.565C6.9352 125.608 4.46775 128.066 1.4326 128.056L1.41843 132.513C4.45358 132.523 6.90802 134.994 6.89816 138.037C6.88439 141.08 4.42476 143.539 1.39349 143.533Z" fill="#BF7C1B"/>
<path d="M349.958 18.4849L48.8481 17.6461C47.7272 33.0813 35.3623 45.4276 19.9772 46.4594L19.7146 138.748C35.0989 139.873 47.3943 152.281 48.4218 167.724L349.531 168.563C350.656 153.128 363.021 140.785 378.41 139.75L378.665 47.4607C363.288 46.3401 350.989 33.9286 349.958 18.4849ZM44.5689 13.2501L354.264 14.1192L354.256 16.3067C354.213 31.0762 366.151 43.1184 380.862 43.1609L383.045 43.1657L382.76 144.072L380.58 144.063C365.866 144.025 353.862 156.002 353.819 170.768L353.814 172.959L44.1229 172.09L44.1239 169.903C44.1706 155.137 32.2325 143.091 17.5216 143.052L15.3341 143.043L15.6194 42.141L17.8069 42.1459C32.5139 42.1884 44.5212 30.2071 44.5601 15.4415L44.5689 13.2501Z" fill="#80191D"/>
<path d="M1.68041 39.6733C4.71168 39.6792 7.16611 42.1505 7.16016 45.1935C7.1503 48.2365 4.68676 50.6949 1.65159 50.6889L1.64132 55.146C4.67259 55.1519 7.1231 57.6271 7.11714 60.6701C7.10728 63.713 4.63986 66.1675 1.60859 66.1616L1.59833 70.6187C4.6296 70.6245 7.08013 73.0959 7.07024 76.1427C7.06429 79.1857 4.59684 81.6441 1.5656 81.6343L1.55143 86.0913C4.58658 86.1011 7.03711 88.5724 7.02725 91.6154C7.01737 94.6623 4.55383 97.1206 1.51868 97.1108L1.50844 101.564C4.53968 101.574 6.99021 104.045 6.98424 107.092C6.97437 110.135 4.50693 112.593 1.47568 112.583L1.46545 117.037C4.49667 117.05 6.9511 119.522 6.93734 122.565C6.93529 125.608 4.46784 128.066 1.43269 128.056L1.41852 132.513C4.45367 132.523 6.90811 134.994 6.89825 138.037C6.88448 141.08 4.42485 143.539 1.39358 143.533L1.37329 149.044C20.0334 149.098 35.1211 164.319 35.067 183.049L199.126 183.506L200.176 2.70447L35.5781 2.24455C35.524 20.975 20.3498 36.1176 1.69358 36.06L1.68041 39.6733Z" fill="#BF7C1B"/>
<path d="M15.3342 143.043L17.5217 143.052C32.2326 143.091 44.1707 155.137 44.124 169.903L44.123 172.09L199.189 172.53L199.215 168.143L48.4218 167.724C47.3943 152.281 35.099 139.873 19.7147 138.749L19.9772 46.4594C35.3624 45.4277 47.7273 33.0813 48.8482 17.6462L200.087 18.0715L200.112 13.6887L44.569 13.2501L44.5602 15.4415C44.5213 30.2072 32.514 42.1884 17.807 42.146L15.6194 42.1411L15.3342 143.043Z" fill="#4D0D0F"/>
<path d="M396.867 47.6758L396.887 42.1641C378.227 42.1104 363.14 26.8897 363.194 8.15535L35.4513 7.24004C35.405 25.9745 20.2309 41.1092 1.5746 41.0595L1.55431 46.5712C4.58557 46.5771 7.03999 49.0523 7.03013 52.0953C7.02026 55.1382 4.56061 57.6005 1.52155 57.5907L1.51129 62.0477C4.54258 62.0497 6.99699 64.525 6.99104 67.5679C6.97727 70.6109 4.5098 73.0732 1.47856 73.0634L1.46439 77.5204C4.50345 77.5302 6.954 79.9976 6.94414 83.0406C6.93818 86.0836 4.47072 88.5458 1.43557 88.536L1.4214 92.9931C4.46045 93.0029 6.91101 95.4703 6.90115 98.5133C6.89124 101.564 4.42772 104.019 1.39648 104.009L1.3784 108.466C4.41355 108.476 6.86409 110.947 6.85811 113.994C6.84825 117.037 4.3808 119.495 1.34953 119.489L1.33932 123.938C4.37056 123.948 6.82107 126.423 6.81121 129.466C6.80525 132.509 4.33781 134.968 1.30654 134.962L1.29242 139.411C4.32757 139.421 6.77808 141.896 6.76822 144.939C6.75835 147.982 4.29481 150.44 1.26355 150.435L1.25042 154.04C19.9106 154.094 35.0021 169.314 34.948 188.049L362.683 188.964C362.737 170.234 377.907 155.091 396.567 155.149L396.58 151.535C393.549 151.529 391.091 149.058 391.1 146.015C391.11 142.972 393.574 140.51 396.609 140.52L396.619 136.063C393.588 136.057 391.138 133.581 391.143 130.538C391.153 127.496 393.621 125.037 396.652 125.047L396.662 120.59C393.631 120.58 391.181 118.113 391.19 115.062C391.196 112.019 393.664 109.565 396.695 109.574L396.709 105.117C393.674 105.107 391.224 102.632 391.233 99.5893C391.243 96.5463 393.707 94.0879 396.738 94.0977L396.752 89.6446C393.721 89.6348 391.27 87.1596 391.276 84.1166C391.286 81.0736 393.754 78.6153 396.785 78.6212L396.795 74.1719C393.764 74.1582 391.31 71.6869 391.323 68.644C391.325 65.601 393.793 63.1426 396.828 63.1485L396.842 58.6915C393.807 58.6856 391.353 56.2142 391.362 53.1713C391.376 50.1283 393.836 47.6699 396.867 47.6758Z" fill="#E7A920"/>
<path d="M48.3029 172.72L349.412 173.562C350.533 158.127 362.898 145.781 378.283 144.745L378.546 52.46C363.162 51.3354 350.866 38.9279 349.839 23.4841L48.7253 22.6454C47.6044 38.0805 35.2395 50.423 19.8505 51.4586L19.5957 143.748C34.9722 144.868 47.2715 157.28 48.3029 172.72ZM353.692 177.954L43.9962 177.089L44.005 174.898C44.0439 160.132 32.1097 148.09 17.3988 148.048L15.2152 148.039L15.5005 47.1364L17.6802 47.1452C32.395 47.1837 44.3945 35.2064 44.4412 20.4369L44.4461 18.2493L354.138 19.1145L354.137 21.3059C354.09 36.0715 366.024 48.1176 380.739 48.1562L382.926 48.165L382.641 149.067L380.454 149.059C365.747 149.02 353.739 161.001 353.7 175.767L353.692 177.954Z" fill="#80191D"/>
<path d="M396.58 151.535C393.549 151.529 391.091 149.058 391.101 146.015C391.11 142.972 393.574 140.51 396.609 140.52L396.619 136.063C393.588 136.057 391.138 133.581 391.144 130.538C391.153 127.496 393.621 125.037 396.652 125.047L396.662 120.59C393.631 120.58 391.181 118.113 391.19 115.062C391.196 112.019 393.664 109.564 396.695 109.574L396.709 105.117C393.674 105.107 391.224 102.632 391.233 99.5893C391.243 96.5463 393.707 94.0879 396.738 94.0977L396.752 89.6446C393.721 89.6348 391.271 87.1596 391.276 84.1166C391.286 81.0736 393.754 78.6153 396.785 78.6212L396.795 74.1719C393.764 74.1582 391.31 71.6869 391.323 68.644C391.325 65.601 393.793 63.1426 396.828 63.1485L396.842 58.6915C393.807 58.6856 391.353 56.2142 391.362 53.1713C391.376 50.1283 393.836 47.6699 396.867 47.6758L396.887 42.1641C378.227 42.1104 363.14 26.8897 363.194 8.15534L199.135 7.69855L198.085 188.504L362.683 188.964C362.737 170.234 377.907 155.091 396.567 155.149L396.58 151.535Z" fill="#E7A920"/>
<path d="M382.926 48.1652L380.739 48.1564C366.024 48.1179 354.09 36.0718 354.137 21.3062L354.138 19.1147L199.071 18.6789L199.046 23.0617L349.839 23.4844C350.866 38.9281 363.162 51.3357 378.546 52.4602L378.283 144.745C362.898 145.781 350.533 158.127 349.412 173.563L198.174 173.137L198.149 177.52L353.692 177.955L353.7 175.767C353.739 161.002 365.747 149.02 380.454 149.059L382.641 149.068L382.926 48.1652Z" fill="#80191D"/>
<path d="M43.3909 113.838C43.3906 113.896 43.3537 113.925 43.2804 113.925L28.1888 113.815C28.1154 113.815 28.079 113.778 28.0794 113.705L28.0936 111.263C28.094 111.189 28.1309 111.153 28.2042 111.153L40.6999 111.248L40.7262 106.716C40.7266 106.643 40.7635 106.606 40.8369 106.607L43.3228 106.621C43.3962 106.621 43.4326 106.658 43.4322 106.732L43.3909 113.838ZM43.4418 105.072C43.4414 105.145 43.4045 105.181 43.3312 105.181L28.2176 105.071C28.1589 105.071 28.1297 105.041 28.1301 104.983L28.1444 102.519C28.1447 102.46 28.1742 102.431 28.2329 102.431L43.3468 102.497C43.4201 102.497 43.4566 102.527 43.4563 102.586L43.4418 105.072ZM43.4685 100.474C43.4682 100.533 43.4313 100.562 43.358 100.562L28.2445 100.43C28.1859 100.43 28.1567 100.4 28.157 100.342L28.1726 97.6576C28.173 97.5989 28.2026 97.5478 28.2615 97.5041L31.1771 95.519L28.2848 93.5002C28.2264 93.4558 28.1973 93.4043 28.1977 93.3457L28.2134 90.6397C28.2137 90.581 28.2432 90.5519 28.3019 90.5522L43.4159 90.596C43.4892 90.5964 43.5257 90.626 43.5254 90.6846L43.5109 93.1706C43.5106 93.2293 43.4738 93.2584 43.4004 93.258L32.1805 93.2148L35.511 95.5442L32.1538 97.8127L43.3735 97.8999C43.4468 97.9003 43.4833 97.9298 43.483 97.9885L43.4685 100.474ZM43.5372 88.6583C43.5368 88.7169 43.5 88.7461 43.4266 88.7456L28.313 88.6358C28.2544 88.6355 28.2252 88.606 28.2255 88.5473L28.2666 81.4854C28.2669 81.4268 28.3037 81.3977 28.3771 81.3981L30.841 81.4124C30.8997 81.4127 30.9289 81.4422 30.9285 81.5009L30.9023 86.0108L34.3343 86.0308L34.3605 81.5208C34.3608 81.4622 34.3903 81.433 34.449 81.4334L36.935 81.4258C36.9937 81.4261 37.0229 81.4556 37.0225 81.5143L36.9962 86.0462L40.8461 86.0686L40.8725 81.5367C40.8728 81.478 40.9096 81.4489 40.983 81.4493L43.4909 81.4639C43.5496 81.4642 43.5788 81.4937 43.5784 81.5524L43.5372 88.6583Z" fill="black"/>
<path d="M353.58 82.1566C353.58 82.0979 353.617 82.0688 353.691 82.0693L368.782 82.1789C368.856 82.1793 368.892 82.2162 368.892 82.2895L368.877 84.7315C368.877 84.8048 368.84 84.8413 368.767 84.8409L356.271 84.7463L356.245 89.2782C356.244 89.3515 356.207 89.388 356.134 89.3876L353.648 89.3731C353.575 89.3727 353.538 89.3358 353.539 89.2625L353.58 82.1566ZM353.529 90.9226C353.53 90.8493 353.566 90.8128 353.64 90.8132L368.753 90.923C368.812 90.9234 368.841 90.9529 368.841 91.0115L368.827 93.4755C368.826 93.5342 368.797 93.5633 368.738 93.563L353.624 93.4972C353.551 93.4968 353.514 93.4672 353.515 93.4086L353.529 90.9226ZM353.502 95.5197C353.503 95.461 353.54 95.4319 353.613 95.4323L368.726 95.5641C368.785 95.5644 368.814 95.5939 368.814 95.6526L368.798 98.3366C368.798 98.3952 368.768 98.4464 368.709 98.49L365.794 100.475L368.686 102.494C368.745 102.538 368.774 102.59 368.773 102.648L368.758 105.354C368.757 105.413 368.728 105.442 368.669 105.442L353.555 105.398C353.482 105.398 353.445 105.368 353.446 105.31L353.46 102.824C353.46 102.765 353.497 102.736 353.571 102.736L364.79 102.779L361.46 100.45L364.817 98.1814L353.597 98.0943C353.524 98.0938 353.488 98.0643 353.488 98.0056L353.502 95.5197ZM353.434 107.336C353.434 107.277 353.471 107.248 353.544 107.249L368.658 107.358C368.717 107.359 368.746 107.388 368.745 107.447L368.704 114.509C368.704 114.567 368.667 114.596 368.594 114.596L366.13 114.582C366.071 114.581 366.042 114.552 366.042 114.493L366.069 109.983L362.637 109.963L362.61 114.473C362.61 114.532 362.581 114.561 362.522 114.561L360.036 114.568C359.977 114.568 359.948 114.539 359.948 114.48L359.975 109.948L356.125 109.926L356.098 114.457C356.098 114.516 356.061 114.545 355.988 114.545L353.48 114.53C353.421 114.53 353.392 114.5 353.393 114.442L353.434 107.336Z" fill="black"/>
</g>
<defs>
<clipPath id="clip0">
<rect width="396" height="187" fill="white" transform="translate(396.454 190.148) rotate(-179.667)"/>
</clipPath>
</defs>
</svg>
