<svg viewBox="0 0 81 75" fill="none" xmlns="http://www.w3.org/2000/svg">
<g clip-path="url(#clip0)">
<path fill-rule="evenodd" clip-rule="evenodd" d="M14.8322 0.368265L0.0630386 33.3889C0.00683776 33.5117 -0.0109719 33.6505 0.012214 33.7848C0.0354 33.9192 0.0983652 34.0421 0.191902 34.1357L40.0798 74.8196C40.1931 74.9353 40.344 74.9998 40.501 74.9998C40.658 74.9998 40.8089 74.9353 40.9222 74.8196L80.8101 34.1382C80.9036 34.0447 80.9666 33.9217 80.9898 33.7874C81.013 33.653 80.9952 33.5143 80.939 33.3914L66.1698 0.370805C66.1222 0.259907 66.0455 0.165963 65.949 0.1002C65.8525 0.034437 65.7403 -0.000363589 65.6257 -4.23968e-05H15.381C15.2659 -0.00156684 15.1529 0.0323955 15.0555 0.0977476C14.9581 0.1631 14.8805 0.25705 14.8322 0.368265Z" fill="#50AF95"/>
<path fill-rule="evenodd" clip-rule="evenodd" d="M45.6247 36.7799C45.3384 36.8028 43.8588 36.8967 40.5585 36.8967C37.9335 36.8967 36.0698 36.8129 35.4159 36.7799C25.2715 36.3049 17.6996 34.4253 17.6996 32.1748C17.6996 29.9243 25.2715 28.0472 35.4159 27.5646V34.9079C36.0793 34.9587 37.9788 35.0781 40.6038 35.0781C43.7538 35.0781 45.3312 34.9384 45.6152 34.9104V27.5697C55.7381 28.0497 63.2933 29.9294 63.2933 32.1748C63.2933 34.4202 55.7405 36.2998 45.6152 36.7774L45.6247 36.7799ZM45.6247 26.8102V20.2391H59.7519V10.2186H21.2887V20.2391H35.4135V26.8077C23.9328 27.369 15.299 29.7897 15.299 32.6904C15.299 35.5912 23.9328 38.0093 35.4135 38.5732V59.6302H45.6223V38.5655C57.0768 38.0042 65.6963 35.5861 65.6963 32.6879C65.6963 29.7897 57.084 27.3716 45.6223 26.8077L45.6247 26.8102Z" fill="white"/>
</g>
<defs>
<clipPath id="clip0">
<rect width="81" height="75" fill="white"/>
</clipPath>
</defs>
</svg>
