<svg  version="1.1"   viewBox="0 0 330 100" fill="none" xmlns="http://www.w3.org/2000/svg">
<path d="M181.823 54.3587C182.213 53.9681 182.213 53.335 181.823 52.9444L175.459 46.5805C175.068 46.19 174.435 46.19 174.045 46.5805C173.654 46.971 173.654 47.6042 174.045 47.9947L179.702 53.6516L174.045 59.3084C173.654 59.6989 173.654 60.3321 174.045 60.7226C174.435 61.1131 175.068 61.1131 175.459 60.7226L181.823 54.3587ZM149 54.6516H181.116V52.6516H149V54.6516Z" fill="#292929"/>
<path d="M148.306 38.282C147.908 38.6663 147.897 39.2994 148.28 39.6959L154.53 46.1582C154.913 46.5548 155.546 46.5647 155.944 46.1803C156.341 45.796 156.353 45.1629 155.969 44.7663L150.414 39.0221L156.171 33.4544C156.569 33.0701 156.58 32.437 156.196 32.0404C155.813 31.6439 155.18 31.634 154.782 32.0184L148.306 38.282ZM181.08 38.5008L149.018 38.0001L148.982 39.9998L181.044 40.5005L181.08 38.5008Z" fill="#292929"/>
<g clip-path="url(#clip0)">
<path d="M325.925 46.7075C324.744 66.5363 309.148 84.2075 288.452 84.2075C269.357 82.5636 252.314 66.3823 250.98 46.7075C250.98 25.9968 268.227 11.4164 288.452 9.20752C309.148 9.20752 327.105 26.8787 325.925 46.7075Z" fill="#79FF39"/>
<path d="M319.252 46.7075C319.252 63.7301 305.7 75.8856 288.452 77.5295C272.026 76.3479 257.653 63.7301 257.653 46.7075C257.653 29.685 271.307 18.8137 288.452 15.8856C305.135 15.8856 320.278 30.8856 319.252 46.7075Z" fill="white"/>
<path d="M284.441 21.0167C278.016 20.5485 272.523 24.8293 272.129 27.3925C271.735 29.9556 289.068 42.8035 289.068 42.8035C289.068 42.8035 290.865 21.485 284.441 21.0167Z" fill="#A9F76B"/>
<path d="M267.304 31.2965C262.684 30.9369 259.527 43.35 261.311 46.544C263.095 49.7384 286.181 44.0813 286.181 44.0813C286.181 44.0813 271.924 31.6561 267.304 31.2965Z" fill="#A9F76B"/>
<path d="M263.71 51.9474C262.223 55.4406 269.305 66.0707 272.745 66.2794C276.184 66.4882 287.36 46.7075 287.36 46.7075C287.36 46.7075 265.197 48.4543 263.71 51.9474Z" fill="#A9F76B"/>
<path d="M278.494 69.3104C281.522 71.9816 294.817 72.5981 296.665 69.3104C298.513 66.0226 290.176 48.5568 290.176 48.5568C290.176 48.5568 275.465 66.6392 278.494 69.3104Z" fill="#A9F76B"/>
<path d="M305.392 26.8788C304.466 24.6298 297.421 20.0233 294.099 20.9199C290.777 21.8165 291.208 43.3674 291.208 43.3674C291.208 43.3674 306.318 29.1278 305.392 26.8788Z" fill="#A9F76B"/>
<path d="M315.196 46.0855C316.829 43.3062 313.808 33.1319 310.935 30.7246C308.061 28.3172 293.483 46.0855 293.483 46.0855C293.483 46.0855 313.564 48.8651 315.196 46.0855Z" fill="#A9F76B"/>
<path d="M303.8 66.5874C305.928 66.8014 314.303 56.2561 313.656 53.745C313.009 51.2339 292.661 47.3923 292.661 47.3923C292.661 47.3923 301.673 66.3738 303.8 66.5874Z" fill="#A9F76B"/>
<path d="M302.825 16.8103C303.335 16.8103 303.749 16.3963 303.749 15.8856C303.749 15.3749 303.335 14.9609 302.825 14.9609C302.314 14.9609 301.901 15.3749 301.901 15.8856C301.901 16.3963 302.314 16.8103 302.825 16.8103Z" fill="#03EA36"/>
<path d="M283.524 81.639C284.034 81.639 284.448 81.2251 284.448 80.7144C284.448 80.2037 284.034 79.7897 283.524 79.7897C283.014 79.7897 282.6 80.2037 282.6 80.7144C282.6 81.2251 283.014 81.639 283.524 81.639Z" fill="#03EA36"/>
<path d="M323.963 45.7588C323.902 45.2517 323.443 44.8894 322.936 44.9496C322.429 45.0098 322.067 45.4697 322.128 45.9768C322.188 46.4839 322.647 46.8462 323.154 46.786C323.661 46.7258 324.023 46.2659 323.963 45.7588Z" fill="#03EA36"/>
<path d="M306.829 17.7349C307.34 17.7349 307.753 17.3209 307.753 16.8102C307.753 16.2995 307.34 15.8856 306.829 15.8856C306.319 15.8856 305.905 16.2995 305.905 16.8102C305.905 17.3209 306.319 17.7349 306.829 17.7349Z" fill="#03EA36"/>
<path d="M287.528 82.5635C288.038 82.5635 288.452 82.1495 288.452 81.6388C288.452 81.1282 288.038 80.7142 287.528 80.7142C287.018 80.7142 286.604 81.1282 286.604 81.6388C286.604 82.1495 287.018 82.5635 287.528 82.5635Z" fill="#03EA36"/>
<path d="M324.408 41.6712C324.348 41.1641 323.888 40.8018 323.382 40.862C322.875 40.9222 322.513 41.3821 322.573 41.8892C322.633 42.3963 323.093 42.7586 323.599 42.6984C324.106 42.6382 324.468 42.1783 324.408 41.6712Z" fill="#03EA36"/>
<path d="M268.125 19.7898C268.352 19.7898 268.536 19.6058 268.536 19.3789C268.536 19.1519 268.352 18.9679 268.125 18.9679C267.898 18.9679 267.714 19.1519 267.714 19.3789C267.714 19.6058 267.898 19.7898 268.125 19.7898Z" fill="#03EA36"/>
<path d="M269.408 20.098C269.606 20.098 269.767 19.937 269.767 19.7384C269.767 19.5398 269.606 19.3788 269.408 19.3788C269.209 19.3788 269.048 19.5398 269.048 19.7384C269.048 19.937 269.209 20.098 269.408 20.098Z" fill="#03EA36"/>
<path d="M264.743 22.4717C263.627 21.757 266.151 19.7767 266.661 19.7507C267.17 19.7248 267.604 20.1172 267.63 20.6272C267.656 21.1372 266.739 21.838 266.38 22.1527C265.775 22.6823 265.718 23.4507 264.743 22.4717Z" fill="#03EA36"/>
<path d="M304.827 15.4746C305.083 15.4746 305.289 15.2676 305.289 15.0123C305.289 14.757 305.083 14.55 304.827 14.55C304.572 14.55 304.365 14.757 304.365 15.0123C304.365 15.2676 304.572 15.4746 304.827 15.4746Z" fill="#03EA36"/>
<path d="M285.732 81.6389C285.987 81.6389 286.194 81.4319 286.194 81.1766C286.194 80.9213 285.987 80.7143 285.732 80.7143C285.477 80.7143 285.27 80.9213 285.27 81.1766C285.27 81.4319 285.477 81.6389 285.732 81.6389Z" fill="#03EA36"/>
<path d="M323.702 43.5654C323.672 43.3119 323.442 43.1307 323.189 43.1608C322.936 43.1909 322.755 43.4209 322.785 43.6744C322.815 43.928 323.045 44.1091 323.298 44.079C323.551 44.0489 323.732 43.819 323.702 43.5654Z" fill="#03EA36"/>
<path d="M288.606 80.7145C288.861 80.7145 289.068 80.5075 289.068 80.2521C289.068 79.9968 288.861 79.7898 288.606 79.7898C288.351 79.7898 288.144 79.9968 288.144 80.2521C288.144 80.5075 288.351 80.7145 288.606 80.7145Z" fill="#03EA36"/>
<path d="M322.446 40.8177C322.416 40.5641 322.186 40.383 321.933 40.4131C321.679 40.4432 321.498 40.6731 321.528 40.9267C321.558 41.1803 321.788 41.3614 322.042 41.3313C322.295 41.3012 322.476 41.0713 322.446 40.8177Z" fill="#03EA36"/>
<path d="M289.941 81.1253C290.196 81.1253 290.403 80.9183 290.403 80.6629C290.403 80.4076 290.196 80.2006 289.941 80.2006C289.686 80.2006 289.479 80.4076 289.479 80.6629C289.479 80.9183 289.686 81.1253 289.941 81.1253Z" fill="#03EA36"/>
<path d="M322.697 39.4431C322.666 39.1896 322.437 39.0084 322.183 39.0385C321.93 39.0686 321.749 39.2986 321.779 39.5521C321.809 39.8057 322.039 39.9868 322.292 39.9567C322.546 39.9266 322.727 39.6967 322.697 39.4431Z" fill="#03EA36"/>
<path d="M306.265 18.8649C306.463 18.8649 306.624 18.7039 306.624 18.5053C306.624 18.3067 306.463 18.1458 306.265 18.1458C306.067 18.1458 305.906 18.3067 305.906 18.5053C305.906 18.7039 306.067 18.8649 306.265 18.8649Z" fill="#03EA36"/>
<path d="M304.827 17.7348C305.083 17.7348 305.289 17.5278 305.289 17.2725C305.289 17.0172 305.083 16.8102 304.827 16.8102C304.572 16.8102 304.365 17.0172 304.365 17.2725C304.365 17.5278 304.572 17.7348 304.827 17.7348Z" fill="#03EA36"/>
<path d="M301.953 14.1389C302.208 14.1389 302.415 13.932 302.415 13.6766C302.415 13.4213 302.208 13.2143 301.953 13.2143C301.697 13.2143 301.491 13.4213 301.491 13.6766C301.491 13.932 301.697 14.1389 301.953 14.1389Z" fill="#03EA36"/>
</g>
<g clip-path="url(#clip1)">
<path fill-rule="evenodd" clip-rule="evenodd" d="M19.0998 15.3486L5.06004 46.6082C5.00661 46.7244 4.98968 46.8558 5.01173 46.983C5.03377 47.1102 5.09362 47.2266 5.18254 47.3151L43.1007 85.8293C43.2084 85.9387 43.3518 85.9999 43.5011 85.9999C43.6503 85.9999 43.7938 85.9387 43.9015 85.8293L81.8196 47.3175C81.9085 47.229 81.9684 47.1126 81.9904 46.9854C82.0124 46.8582 81.9955 46.7269 81.9421 46.6106L67.9023 15.3511C67.857 15.2461 67.7841 15.1571 67.6924 15.0949C67.6007 15.0326 67.494 14.9997 67.3851 15H19.6216C19.5122 14.9985 19.4047 15.0307 19.3121 15.0926C19.2195 15.1544 19.1458 15.2434 19.0998 15.3486Z" fill="#50AF95"/>
<path fill-rule="evenodd" clip-rule="evenodd" d="M48.3717 49.8183C48.0994 49.84 46.693 49.9289 43.5556 49.9289C41.0603 49.9289 39.2886 49.8496 38.667 49.8183C29.0236 49.3687 21.8256 47.5893 21.8256 45.4588C21.8256 43.3284 29.0236 41.5514 38.667 41.0945V48.0462C39.2976 48.0942 41.1034 48.2073 43.5987 48.2073C46.5932 48.2073 48.0926 48.075 48.3626 48.0486V41.0993C57.9856 41.5538 65.1677 43.3332 65.1677 45.4588C65.1677 47.5845 57.9879 49.3639 48.3626 49.8159L48.3717 49.8183ZM48.3717 40.3804V34.1597H61.8012V24.6736H25.2374V34.1597H38.6647V40.3779C27.7509 40.9094 19.5435 43.2009 19.5435 45.947C19.5435 48.693 27.7509 50.9821 38.6647 51.516V71.4499H48.3694V51.5087C59.2582 50.9773 67.4521 48.6882 67.4521 45.9445C67.4521 43.2009 59.265 40.9118 48.3694 40.3779L48.3717 40.3804Z" fill="white"/>
</g>
<defs>
<clipPath id="clip0">
<rect width="75" height="75" fill="white" transform="translate(250.98 9.20752)"/>
</clipPath>
<clipPath id="clip1">
<rect width="77" height="71" fill="white" transform="translate(5 15)"/>
</clipPath>
</defs>
</svg>
